<svg
              width="45"
              height="45"
              viewBox="0 0 45 45"
              fill="none"
              xmlns="http://www.w3.org/2000/svg"
            >
              <path
                d="M14.1692 23.3873C11.917 25.9612 11.519 29.0934 11.6854 31.2716C11.7644 32.3071 12.8146 32.8778 13.7791 32.4929C14.477 32.2144 15.2413 31.8668 15.7917 31.4999C17.4142 30.4182 16.8734 29.3365 17.4142 27.7141C17.9551 26.0916 20.3366 24.7717 22.5 25.3125C24.6634 25.8533 25.5268 27.7141 25.5268 29.3365C25.5268 30.9591 24.8437 32.8125 22.8227 33.6633C20.5934 34.6017 19.5776 33.6633 16.8734 33.1224C15.4641 32.8406 14.055 34.0733 13.2438 34.9672C12.7844 35.4731 12.7352 36.2096 13.1336 36.7648C13.4043 37.142 13.7534 37.5743 14.1692 37.99C15.2509 39.0717 19.5776 42.3168 23.9044 41.7759C28.231 41.2351 32.0169 37.99 33.6395 34.2041C35.262 30.4182 34.1803 26.0916 31.4761 22.8465C28.7719 19.6014 23.9044 19.0606 22.8227 19.0606C21.741 19.0606 17.9551 19.0606 14.1692 23.3873Z"
                stroke="black"
                stroke-width="4"
                stroke-linecap="round"
                stroke-linejoin="round"
              />
              <path
                d="M29.5896 21.224L11.8531 7.66062C11.4798 7.37519 10.9463 7.40654 10.668 7.78511C9.99963 8.6942 9.36832 10.1356 10.3833 11.4888C11.6812 13.2195 16.693 17.6183 19.0366 19.6014"
                stroke="black"
                stroke-width="4"
                stroke-linecap="round"
                stroke-linejoin="round"
              />
              <path
                d="M32.8125 24.375L21.6946 3.93596C21.4702 3.5234 20.9706 3.33455 20.5621 3.56638C19.5808 4.12343 18.4158 5.18169 18.79 6.83155C19.2686 8.94132 21.1699 12.7018 22.5 15.4687"
                stroke="black"
                stroke-width="4"
                stroke-linecap="round"
                stroke-linejoin="round"
              />
              <path
                d="M33.75 26.25L32.8597 7.21145C32.8377 6.74264 32.4711 6.35488 32.0027 6.38481C30.8766 6.45676 29.3655 6.89918 28.9809 8.54706C28.4892 10.6538 28.138 13.805 28.125 16.875"
                stroke="black"
                stroke-width="4"
                stroke-linecap="round"
                stroke-linejoin="round"
              />
            </svg>