<svg
              width="39"
              height="39"
              viewBox="0 0 39 39"
              fill="none"
              xmlns="http://www.w3.org/2000/svg"
            >
              <path
                d="M19.5 0.75C9.16125 0.75 0.75 9.16125 0.75 19.5V27.2681C0.75 29.1881 2.43187 30.75 4.5 30.75H6.375C6.87228 30.75 7.34919 30.5525 7.70082 30.2008C8.05246 29.8492 8.25 29.3723 8.25 28.875V19.2319C8.25 18.7346 8.05246 18.2577 7.70082 17.906C7.34919 17.5544 6.87228 17.3569 6.375 17.3569H4.6725C5.715 10.1006 11.9588 4.5 19.5 4.5C27.0413 4.5 33.285 10.1006 34.3275 17.3569H32.625C32.1277 17.3569 31.6508 17.5544 31.2992 17.906C30.9475 18.2577 30.75 18.7346 30.75 19.2319V30.75C30.75 32.8181 29.0681 34.5 27 34.5H23.25V32.625H15.75V38.25H27C31.1362 38.25 34.5 34.8862 34.5 30.75C36.5681 30.75 38.25 29.1881 38.25 27.2681V19.5C38.25 9.16125 29.8387 0.75 19.5 0.75Z"
                fill="black"
              />
            </svg>