<svg width="18" height="18" viewBox="0 0 34 32" fill="none" xmlns="http://www.w3.org/2000/svg">
<path d="M3.15169 5.05963C5.49002 2.14438 9.02836 0.666626 13.6667 0.666626H15.3334V6.06971L13.9934 6.37829C11.71 6.90346 10.1217 7.93654 9.27169 9.45263C8.82818 10.2694 8.57664 11.2045 8.54169 12.1666H13.6667C14.1087 12.1666 14.5326 12.3686 14.8452 12.728C15.1578 13.0874 15.3334 13.575 15.3334 14.0833V27.5C15.3334 29.614 13.8384 31.3333 12 31.3333H2.00002C1.55799 31.3333 1.13407 31.1314 0.821511 30.7719C0.50895 30.4125 0.333356 29.925 0.333356 29.4166V19.8333L0.338356 14.2385C0.323356 14.0258 0.00668901 8.98496 3.15169 5.05963ZM30.3334 31.3333H20.3334C19.8913 31.3333 19.4674 31.1314 19.1548 30.7719C18.8423 30.4125 18.6667 29.925 18.6667 29.4166V19.8333L18.6717 14.2385C18.6567 14.0258 18.34 8.98496 21.485 5.05963C23.8234 2.14438 27.3617 0.666626 32 0.666626H33.6667V6.06971L32.3267 6.37829C30.0434 6.90346 28.455 7.93654 27.605 9.45263C27.1615 10.2694 26.91 11.2045 26.875 12.1666H32C32.4421 12.1666 32.866 12.3686 33.1785 12.728C33.4911 13.0874 33.6667 13.575 33.6667 14.0833V27.5C33.6667 29.614 32.1717 31.3333 30.3334 31.3333Z" fill="#1E5C63"/>
</svg>
