<svg
            viewBox="0 0 600 600"
            fill="none"
            xmlns="http://www.w3.org/2000/svg"
          >
            <path
              d="M128.578 520.519C241.798 579.66 425.281 579.66 538.474 520.519C651.668 461.378 651.694 365.527 538.474 306.387C425.254 247.246 241.771 247.259 128.578 306.387C15.3846 365.514 15.3979 461.391 128.578 520.519Z"
              fill="#F5F5F5"
            />
            <path
              d="M94.9982 426.24H99.7668C101.952 418.942 103.385 411.439 104.043 403.849C105.081 389.797 98.275 368.285 85.8074 361.079C73.3399 353.872 66.5867 362.784 70.7692 370.403C74.9516 378.022 89.0575 399.693 89.244 418.341L94.9982 426.24Z"
              fill="#4ECDC4"
            />
            <path
              d="M93.8527 426.24H95.1847C96.4861 417.037 96.4861 407.697 95.1847 398.495C93.0269 380.259 87.0329 371.788 81.4651 365.9C81.3432 365.772 81.1751 365.696 80.9978 365.691C80.8204 365.686 80.6483 365.752 80.5194 365.874C80.3905 365.996 80.3152 366.164 80.3102 366.341C80.3052 366.519 80.3709 366.691 80.4928 366.82C85.914 372.534 91.7482 380.792 93.8128 398.641C95.1323 407.792 95.1457 417.085 93.8527 426.24Z"
              fill="white"
            />
            <path
              d="M95.3845 426.24C92.9336 414.678 81.7981 400.932 71.2886 398.561C59.1008 395.897 53.1734 402.331 54.9184 407.885C56.6633 413.44 66.2936 416.024 75.6443 420.379C78.7928 421.837 81.6709 423.819 84.1558 426.24H95.3845Z"
              fill="#4ECDC4"
            />
            <path
              d="M90.949 426.24H92.3742C87.2194 413.28 75.4978 404.036 65.9074 403.183C65.8205 403.174 65.7328 403.182 65.6492 403.208C65.5657 403.233 65.4881 403.275 65.421 403.331C65.354 403.387 65.2988 403.455 65.2588 403.533C65.2188 403.611 65.1947 403.696 65.1881 403.783C65.177 403.87 65.1839 403.958 65.2086 404.043C65.2332 404.127 65.2749 404.205 65.3311 404.273C65.3874 404.34 65.4569 404.395 65.5354 404.435C65.614 404.474 65.6998 404.497 65.7875 404.502C74.8451 405.314 85.914 413.999 90.949 426.24Z"
              fill="white"
            />
            <path
              d="M525.367 304.375L535.344 309.61L536.183 303.363C531.242 289.43 535.304 273.633 540.645 267.053C545.987 260.473 544.961 255.638 543.03 253.48C541.098 251.322 533.772 249.683 526.526 258.155C519.28 266.627 517.615 276.91 518.827 287.286C519.6 293.773 523.01 300.433 525.367 304.375Z"
              fill="#4ECDC4"
            />
            <path
              opacity="0.2"
              d="M525.367 304.375L535.344 309.61L536.183 303.363C531.242 289.43 535.304 273.633 540.645 267.053C545.987 260.473 544.961 255.638 543.03 253.48C541.098 251.322 533.772 249.683 526.526 258.155C519.28 266.627 517.615 276.91 518.827 287.286C519.6 293.773 523.01 300.433 525.367 304.375Z"
              fill="black"
            />
            <path
              d="M529.483 306.533L531.455 307.572C531.436 307.535 531.413 307.499 531.388 307.466C528.564 304.109 524.915 287.672 526.446 278.042C528.338 266.147 534.438 258.381 539.66 255.091C539.724 255.052 539.779 255 539.823 254.939C539.866 254.878 539.897 254.809 539.913 254.735C539.929 254.662 539.931 254.586 539.917 254.512C539.903 254.438 539.874 254.368 539.833 254.306C539.749 254.178 539.618 254.089 539.469 254.057C539.319 254.024 539.163 254.051 539.034 254.132C533.706 257.556 527.259 265.588 525.301 277.869C523.889 286.833 526.713 301.032 529.483 306.533Z"
              fill="white"
            />
            <path
              d="M535.544 280.599C538.461 287.752 538.448 291.255 533.692 291.988C529.403 292.627 524.195 297.835 529.03 306.294L557.322 321.132C557.393 319.551 557.784 318 558.471 316.574C559.158 315.148 560.126 313.875 561.318 312.834C565.967 308.185 570.256 304.682 569.59 299.514C568.924 294.345 564.435 289.364 563.689 284.862C562.943 280.359 565.234 277.789 570.123 272.74C575.011 267.692 579.447 259.86 572.92 256.29C566.393 252.72 558.921 258.834 555.804 262.95C552.687 267.066 549.836 268.878 543.696 268.531C537.555 268.185 532.627 273.446 535.544 280.599Z"
              fill="#4ECDC4"
            />
            <path
              d="M543.549 313.913C543.416 291.961 559.147 266.254 567.898 261.059C568.027 260.976 568.12 260.848 568.157 260.699C568.194 260.55 568.173 260.393 568.098 260.26C568.018 260.131 567.892 260.039 567.745 260.002C567.599 259.965 567.444 259.985 567.312 260.06C558.441 265.388 542.577 291.109 542.404 313.34L543.549 313.913Z"
              fill="white"
            />
            <path
              d="M547.758 291.095C547.638 291.123 547.512 291.109 547.401 291.056C547.29 291.002 547.2 290.913 547.146 290.802C544.604 286.061 542.466 281.116 540.752 276.017C540.729 275.945 540.721 275.87 540.727 275.795C540.734 275.72 540.755 275.647 540.79 275.58C540.824 275.513 540.872 275.454 540.929 275.406C540.987 275.357 541.053 275.321 541.125 275.298C541.197 275.275 541.272 275.267 541.347 275.273C541.422 275.28 541.495 275.301 541.562 275.335C541.629 275.37 541.688 275.417 541.736 275.475C541.785 275.532 541.822 275.599 541.844 275.671C543.542 280.699 545.654 285.577 548.158 290.256C548.229 290.392 548.244 290.551 548.199 290.698C548.154 290.845 548.053 290.969 547.918 291.042L547.758 291.095Z"
              fill="white"
            />
            <path
              d="M543.976 304.549C543.866 304.569 543.754 304.558 543.65 304.518C543.547 304.478 543.457 304.41 543.389 304.322C543.302 304.195 543.268 304.038 543.295 303.886C543.323 303.733 543.409 303.598 543.536 303.51C549.272 299.494 556.231 297.609 563.21 298.182C563.361 298.201 563.499 298.28 563.593 298.401C563.687 298.522 563.728 298.676 563.709 298.828C563.69 298.98 563.611 299.117 563.489 299.211C563.368 299.305 563.215 299.347 563.063 299.327C556.381 298.819 549.726 300.609 544.202 304.402C544.137 304.466 544.06 304.515 543.976 304.549Z"
              fill="white"
            />
            <path
              d="M376.809 170.456L344.349 151.715L311.901 170.456L344.349 189.197L376.809 170.456Z"
              fill="#F5F5F5"
            />
            <path
              d="M344.349 226.693L376.81 207.952V170.456L344.349 189.197V226.693Z"
              fill="#EBEBEB"
            />
            <path
              d="M350.609 214.252C350.437 214.255 350.267 214.214 350.116 214.132C349.909 213.981 349.744 213.779 349.637 213.546C349.529 213.313 349.484 213.056 349.504 212.8V208.804V208.511H349.703L352.82 206.686V211.122C352.816 211.693 352.674 212.255 352.408 212.76C352.141 213.266 351.757 213.7 351.288 214.026C351.087 214.162 350.852 214.24 350.609 214.252ZM350.01 209.097V212.774C349.987 212.945 350.009 213.119 350.072 213.279C350.135 213.44 350.237 213.582 350.369 213.693C350.477 213.741 350.596 213.759 350.713 213.745C350.831 213.731 350.942 213.685 351.035 213.613C351.434 213.334 351.762 212.967 351.994 212.539C352.225 212.111 352.353 211.635 352.367 211.149V210.829H351.208L350.982 209.27L350.01 209.097ZM351.608 210.323H352.327V207.592L350.463 208.671L351.382 208.844L351.608 210.323Z"
              fill="white"
            />
            <path
              d="M351.168 217.422C351.101 217.422 351.037 217.396 350.99 217.348C350.942 217.301 350.915 217.236 350.915 217.169V213.839C350.913 213.806 350.919 213.772 350.931 213.74C350.943 213.709 350.961 213.68 350.985 213.656C351.009 213.632 351.038 213.614 351.069 213.602C351.101 213.589 351.135 213.584 351.168 213.586C351.236 213.586 351.3 213.613 351.347 213.66C351.395 213.708 351.422 213.772 351.422 213.839V217.116C351.427 217.153 351.425 217.191 351.415 217.227C351.405 217.263 351.387 217.297 351.364 217.326C351.34 217.355 351.31 217.378 351.276 217.395C351.243 217.412 351.206 217.421 351.168 217.422Z"
              fill="white"
            />
            <path
              d="M349.717 218.262C349.672 218.261 349.629 218.249 349.591 218.225C349.554 218.202 349.523 218.168 349.504 218.128C349.485 218.101 349.473 218.07 349.467 218.038C349.462 218.005 349.464 217.972 349.473 217.94C349.482 217.909 349.497 217.879 349.519 217.854C349.54 217.829 349.567 217.809 349.597 217.795L352.487 216.117C352.516 216.1 352.548 216.09 352.581 216.085C352.614 216.081 352.648 216.083 352.68 216.092C352.712 216.1 352.742 216.115 352.768 216.136C352.795 216.156 352.817 216.181 352.834 216.21C352.864 216.269 352.871 216.337 352.854 216.401C352.837 216.466 352.796 216.521 352.74 216.557L349.837 218.222L349.717 218.262Z"
              fill="white"
            />
            <path
              d="M360.053 212.507C359.962 212.535 359.864 212.535 359.773 212.507C359.676 212.442 359.598 212.352 359.546 212.247C359.495 212.142 359.472 212.025 359.48 211.908V211.229C359.478 211.196 359.483 211.163 359.494 211.133C359.506 211.102 359.523 211.074 359.545 211.05C359.568 211.027 359.595 211.008 359.625 210.995C359.655 210.982 359.687 210.975 359.72 210.975C359.754 210.974 359.787 210.979 359.819 210.991C359.851 211.003 359.879 211.021 359.903 211.045C359.927 211.069 359.946 211.098 359.958 211.129C359.97 211.161 359.975 211.195 359.973 211.229V211.788C359.973 211.895 359.973 211.948 359.973 211.948C359.973 211.948 360.053 211.948 360.133 211.948C360.288 211.807 360.41 211.634 360.491 211.44C360.571 211.247 360.608 211.038 360.599 210.829V206.46C360.599 206.427 360.606 206.395 360.618 206.365C360.631 206.335 360.65 206.308 360.674 206.286C360.698 206.263 360.726 206.246 360.756 206.234C360.787 206.223 360.82 206.218 360.852 206.22C360.916 206.22 360.977 206.245 361.022 206.29C361.067 206.335 361.092 206.396 361.092 206.46V210.909C361.102 211.205 361.043 211.5 360.921 211.771C360.798 212.041 360.615 212.279 360.386 212.467C360.278 212.502 360.165 212.515 360.053 212.507Z"
              fill="white"
            />
            <path
              d="M357.416 208.631V208.205C357.478 207.096 357.799 206.016 358.354 205.054C358.91 204.092 359.683 203.273 360.612 202.664C360.945 202.384 361.355 202.213 361.788 202.175C362.221 202.136 362.655 202.232 363.032 202.449C363.409 202.665 363.71 202.993 363.894 203.386C364.078 203.78 364.137 204.22 364.062 204.649V204.795L357.416 208.631ZM362.104 202.717C361.664 202.731 361.236 202.864 360.865 203.103C360.074 203.625 359.404 204.31 358.898 205.111C358.393 205.913 358.065 206.813 357.935 207.752L363.556 204.515C363.577 204.201 363.517 203.886 363.382 203.602C363.247 203.317 363.041 203.072 362.783 202.89C362.577 202.773 362.342 202.713 362.104 202.717Z"
              fill="white"
            />
            <path
              d="M368.964 207.392C368.899 207.392 368.837 207.368 368.79 207.323C368.743 207.278 368.714 207.217 368.711 207.153V198.654C368.711 198.587 368.738 198.523 368.785 198.475C368.833 198.428 368.897 198.401 368.964 198.401C369.031 198.401 369.095 198.428 369.143 198.475C369.19 198.523 369.217 198.587 369.217 198.654V207.153C369.214 207.217 369.185 207.278 369.138 207.323C369.091 207.368 369.029 207.392 368.964 207.392Z"
              fill="white"
            />
            <path
              d="M368.285 200.586H368.191C368.161 200.573 368.133 200.554 368.11 200.53C368.086 200.506 368.068 200.478 368.056 200.447C368.043 200.416 368.037 200.383 368.038 200.35C368.038 200.316 368.045 200.283 368.058 200.253L368.951 198.202L369.936 199.347C369.957 199.372 369.973 199.4 369.983 199.431C369.993 199.461 369.997 199.494 369.995 199.526C369.992 199.558 369.983 199.589 369.969 199.618C369.954 199.647 369.934 199.672 369.91 199.693C369.885 199.714 369.857 199.73 369.826 199.74C369.795 199.75 369.763 199.754 369.731 199.752C369.699 199.749 369.668 199.741 369.639 199.726C369.61 199.711 369.584 199.691 369.563 199.667L369.084 199.134L368.511 200.466C368.489 200.505 368.455 200.537 368.415 200.559C368.375 200.58 368.33 200.589 368.285 200.586Z"
              fill="white"
            />
            <path
              d="M371.322 206.087C371.257 206.084 371.196 206.055 371.151 206.008C371.107 205.961 371.082 205.899 371.082 205.834V197.336C371.073 197.299 371.073 197.26 371.081 197.223C371.09 197.186 371.106 197.151 371.13 197.121C371.154 197.091 371.184 197.067 371.218 197.05C371.252 197.034 371.29 197.025 371.328 197.025C371.366 197.025 371.404 197.034 371.438 197.05C371.473 197.067 371.503 197.091 371.527 197.121C371.55 197.151 371.567 197.186 371.575 197.223C371.584 197.26 371.583 197.299 371.575 197.336V205.834C371.575 205.901 371.548 205.965 371.501 206.013C371.453 206.06 371.389 206.087 371.322 206.087Z"
              fill="white"
            />
            <path
              d="M370.589 199.267H370.496C370.465 199.254 370.437 199.235 370.414 199.211C370.391 199.188 370.372 199.159 370.36 199.128C370.348 199.097 370.341 199.064 370.342 199.031C370.342 198.998 370.349 198.965 370.363 198.934L371.255 196.883L372.241 198.028C372.285 198.075 372.309 198.137 372.309 198.202C372.309 198.266 372.285 198.328 372.241 198.375C372.192 198.42 372.127 198.445 372.061 198.445C371.994 198.445 371.93 198.42 371.881 198.375L371.415 197.829L370.842 199.161C370.815 199.201 370.776 199.232 370.731 199.251C370.686 199.27 370.637 199.276 370.589 199.267Z"
              fill="white"
            />
            <path
              d="M344.349 226.693L311.888 207.952L311.901 170.456L344.349 189.197V226.693Z"
              fill="#E0E0E0"
            />
            <path
              d="M329.883 180.846L362.317 162.091L358.654 159.973L326.207 178.728L329.883 180.846Z"
              fill="white"
            />
            <path
              d="M316.816 191.954L328.445 198.614C329.113 199.055 329.67 199.646 330.07 200.34C330.47 201.033 330.703 201.811 330.749 202.61V209.777C330.749 211.255 329.71 211.855 328.445 211.109L316.816 204.449C316.147 204.009 315.59 203.418 315.189 202.724C314.789 202.03 314.557 201.252 314.512 200.453V193.286C314.512 191.808 315.551 191.222 316.816 191.954Z"
              fill="#BA68C8"
            />
            <path
              d="M315.924 193.739L316.363 194.006V201.958L315.924 201.705V193.739Z"
              fill="#BA68C8"
            />
            <path
              d="M317.722 194.778L318.481 195.231V203.183L317.722 202.744V194.778Z"
              fill="#BA68C8"
            />
            <path
              d="M319.52 195.817L319.96 196.07V204.036L319.52 203.783V195.817Z"
              fill="#BA68C8"
            />
            <path
              d="M320.865 196.59L321.758 197.109V205.075L320.865 204.542V196.59Z"
              fill="#BA68C8"
            />
            <path
              d="M323.103 197.895L323.556 198.148V206.114L323.103 205.847V197.895Z"
              fill="#BA68C8"
            />
            <path
              d="M324.409 198.628L325.341 199.187V207.139L324.395 206.58L324.409 198.628Z"
              fill="#BA68C8"
            />
            <path
              d="M326.7 199.973L327.139 200.226V208.178L326.7 207.925V199.973Z"
              fill="#BA68C8"
            />
            <path
              d="M327.725 200.546L327.952 200.679V208.631L327.725 208.511V200.546Z"
              fill="#BA68C8"
            />
            <path
              d="M325.887 199.534L326.1 199.667V207.619L325.887 207.499V199.534Z"
              fill="#BA68C8"
            />
            <path
              d="M322.264 197.416L322.477 197.536V205.501L322.264 205.368V197.416Z"
              fill="#BA68C8"
            />
            <path
              d="M320.279 196.27L320.506 196.403V204.369L320.279 204.235V196.27Z"
              fill="#BA68C8"
            />
            <path
              d="M318.854 195.484L319.081 195.617V203.583L318.854 203.45V195.484Z"
              fill="#BA68C8"
            />
            <path
              d="M316.923 194.312L317.149 194.445V202.411L316.923 202.277V194.312Z"
              fill="#BA68C8"
            />
            <path
              d="M328.498 200.999L328.937 201.252V209.217L328.498 208.964V200.999Z"
              fill="#BA68C8"
            />
            <path
              d="M333.533 164.209L295.651 142.351L257.782 164.209L295.651 186.08L333.533 164.209Z"
              fill="#F5F5F5"
            />
            <path
              d="M279.414 176.703L317.296 154.845L313.619 152.727L275.751 174.585L279.414 176.703Z"
              fill="white"
            />
            <path
              d="M295.651 254.798L333.533 232.94V164.209L295.651 186.08V254.798Z"
              fill="#EBEBEB"
            />
            <path
              d="M301.911 242.424C301.738 242.427 301.567 242.381 301.418 242.291C301.208 242.142 301.041 241.941 300.933 241.707C300.826 241.473 300.782 241.215 300.806 240.959V236.963V236.67H301.019L304.122 234.845V239.28C304.116 239.851 303.973 240.412 303.707 240.917C303.441 241.422 303.058 241.856 302.59 242.184C302.39 242.325 302.155 242.408 301.911 242.424ZM301.312 237.269V240.945C301.29 241.116 301.311 241.29 301.374 241.451C301.437 241.612 301.539 241.754 301.671 241.864C301.779 241.913 301.898 241.931 302.015 241.917C302.133 241.903 302.244 241.857 302.337 241.785C302.736 241.506 303.064 241.138 303.296 240.711C303.527 240.283 303.655 239.807 303.669 239.32V239.001H302.511L302.284 237.442L301.312 237.269ZM302.91 238.495H303.696V235.764L301.831 236.856L302.75 237.016L302.91 238.495Z"
              fill="white"
            />
            <path
              d="M302.471 245.541C302.403 245.541 302.339 245.514 302.292 245.467C302.244 245.419 302.217 245.355 302.217 245.288V241.944C302.217 241.912 302.224 241.88 302.237 241.85C302.25 241.82 302.269 241.792 302.292 241.77C302.316 241.748 302.344 241.73 302.375 241.719C302.405 241.708 302.438 241.703 302.471 241.705C302.535 241.705 302.598 241.729 302.645 241.774C302.692 241.819 302.72 241.88 302.724 241.944V245.288C302.72 245.354 302.693 245.416 302.646 245.463C302.599 245.51 302.537 245.538 302.471 245.541Z"
              fill="white"
            />
            <path
              d="M301.032 246.42C300.989 246.421 300.947 246.41 300.909 246.389C300.872 246.368 300.84 246.337 300.819 246.3C300.789 246.241 300.781 246.173 300.798 246.109C300.816 246.045 300.856 245.99 300.912 245.954L303.803 244.289C303.831 244.272 303.863 244.261 303.896 244.257C303.929 244.253 303.963 244.255 303.995 244.263C304.027 244.272 304.057 244.287 304.084 244.307C304.11 244.328 304.132 244.353 304.149 244.382C304.165 244.41 304.176 244.441 304.18 244.473C304.184 244.505 304.182 244.537 304.173 244.568C304.164 244.599 304.15 244.629 304.129 244.654C304.109 244.679 304.084 244.7 304.056 244.715L301.152 246.393C301.116 246.415 301.074 246.424 301.032 246.42Z"
              fill="white"
            />
            <path
              d="M311.355 240.626C311.258 240.626 311.162 240.603 311.075 240.559C310.978 240.494 310.9 240.404 310.848 240.299C310.797 240.194 310.774 240.077 310.782 239.96V239.267C310.782 239.235 310.789 239.202 310.802 239.172C310.815 239.142 310.833 239.115 310.857 239.093C310.881 239.07 310.909 239.053 310.939 239.042C310.97 239.03 311.003 239.026 311.035 239.027C311.067 239.027 311.098 239.034 311.127 239.046C311.156 239.058 311.183 239.075 311.205 239.098C311.227 239.12 311.245 239.146 311.257 239.175C311.269 239.205 311.275 239.236 311.275 239.267V239.96C311.275 240.053 311.275 240.106 311.275 240.12C311.275 240.133 311.355 240.12 311.435 240.12C311.59 239.976 311.713 239.801 311.793 239.605C311.874 239.41 311.911 239.199 311.901 238.987V234.552C311.901 234.485 311.928 234.42 311.975 234.373C312.023 234.325 312.087 234.299 312.154 234.299C312.22 234.302 312.283 234.33 312.33 234.377C312.376 234.423 312.404 234.486 312.407 234.552V238.987C312.42 239.286 312.361 239.583 312.236 239.854C312.111 240.125 311.923 240.362 311.688 240.546C311.585 240.598 311.471 240.625 311.355 240.626Z"
              fill="white"
            />
            <path
              d="M308.718 236.75V236.31C308.781 235.203 309.103 234.126 309.658 233.166C310.213 232.206 310.986 231.389 311.914 230.782C312.247 230.502 312.657 230.332 313.09 230.293C313.523 230.255 313.957 230.35 314.334 230.567C314.711 230.784 315.012 231.111 315.196 231.505C315.38 231.898 315.439 232.339 315.364 232.767V232.913L308.718 236.75ZM313.406 230.822C312.967 230.842 312.54 230.975 312.168 231.208C311.375 231.732 310.703 232.418 310.198 233.222C309.693 234.027 309.365 234.929 309.237 235.87L314.858 232.634C314.878 232.318 314.818 232.002 314.682 231.715C314.547 231.429 314.342 231.181 314.086 230.995C313.877 230.882 313.644 230.822 313.406 230.822Z"
              fill="white"
            />
            <path
              d="M320.319 235.511C320.252 235.511 320.188 235.484 320.14 235.437C320.093 235.389 320.066 235.325 320.066 235.258V226.76C320.066 226.693 320.093 226.628 320.14 226.581C320.188 226.533 320.252 226.507 320.319 226.507C320.386 226.507 320.451 226.533 320.498 226.581C320.546 226.628 320.572 226.693 320.572 226.76V235.258C320.572 235.325 320.546 235.389 320.498 235.437C320.451 235.484 320.386 235.511 320.319 235.511Z"
              fill="white"
            />
            <path
              d="M319.587 228.704H319.494C319.463 228.693 319.436 228.675 319.413 228.652C319.389 228.63 319.371 228.603 319.359 228.573C319.346 228.543 319.34 228.511 319.34 228.479C319.341 228.446 319.347 228.414 319.36 228.385L320.253 226.333L321.238 227.479C321.281 227.528 321.302 227.593 321.297 227.658C321.292 227.723 321.261 227.783 321.212 227.825C321.162 227.868 321.098 227.889 321.033 227.884C320.968 227.879 320.908 227.848 320.865 227.799L320.386 227.252L319.813 228.584C319.791 228.624 319.757 228.656 319.717 228.677C319.677 228.698 319.632 228.708 319.587 228.704Z"
              fill="white"
            />
            <path
              d="M322.624 234.192C322.56 234.192 322.499 234.167 322.454 234.122C322.409 234.077 322.384 234.016 322.384 233.952V225.454C322.382 225.422 322.387 225.389 322.398 225.358C322.409 225.328 322.427 225.3 322.449 225.276C322.472 225.252 322.499 225.234 322.529 225.221C322.559 225.208 322.591 225.201 322.624 225.201C322.657 225.199 322.691 225.204 322.723 225.217C322.754 225.229 322.783 225.247 322.807 225.271C322.831 225.295 322.849 225.324 322.861 225.355C322.874 225.387 322.879 225.421 322.877 225.454V233.952C322.877 233.985 322.87 234.017 322.857 234.047C322.845 234.077 322.826 234.104 322.802 234.127C322.778 234.149 322.75 234.167 322.72 234.178C322.689 234.189 322.656 234.194 322.624 234.192Z"
              fill="white"
            />
            <path
              d="M321.904 227.386H321.798C321.738 227.357 321.691 227.307 321.667 227.245C321.642 227.183 321.641 227.115 321.665 227.053L322.557 225.001L323.556 226.147C323.597 226.195 323.62 226.257 323.62 226.32C323.62 226.384 323.597 226.445 323.556 226.493C323.533 226.517 323.505 226.536 323.474 226.549C323.443 226.562 323.41 226.568 323.376 226.568C323.343 226.568 323.31 226.562 323.279 226.549C323.248 226.536 323.22 226.517 323.196 226.493L322.73 225.947L322.158 227.279C322.131 227.321 322.093 227.353 322.048 227.372C322.002 227.391 321.952 227.396 321.904 227.386Z"
              fill="white"
            />
            <path
              d="M295.651 254.798L257.782 232.94V164.209L295.651 186.08V254.798Z"
              fill="#E0E0E0"
            />
            <path
              d="M265.481 218.648L277.096 225.308C277.768 225.746 278.328 226.336 278.73 227.03C279.133 227.724 279.367 228.503 279.414 229.304V236.483C279.414 237.948 278.375 238.548 277.096 237.815L265.481 231.155C264.809 230.718 264.25 230.128 263.85 229.433C263.449 228.739 263.219 227.96 263.177 227.159V219.993C263.177 218.448 264.216 217.915 265.481 218.648Z"
              fill="#F5F5F5"
            />
            <path
              d="M264.588 220.433L265.028 220.699V228.651L264.588 228.398V220.433Z"
              fill="#E0E0E0"
            />
            <path
              d="M266.387 221.472L267.146 221.925V229.89L266.387 229.437V221.472Z"
              fill="#E0E0E0"
            />
            <path
              d="M268.172 222.511L268.624 222.764L268.611 230.729L268.172 230.476V222.511Z"
              fill="#E0E0E0"
            />
            <path
              d="M269.53 223.283L270.409 223.803V231.768L269.53 231.235V223.283Z"
              fill="#E0E0E0"
            />
            <path
              d="M271.768 224.589L272.208 224.842V232.807L271.768 232.541V224.589Z"
              fill="#E0E0E0"
            />
            <path
              d="M273.06 225.321L274.006 225.88V233.833L273.06 233.273V225.321Z"
              fill="#E0E0E0"
            />
            <path
              d="M275.364 226.653L275.804 226.919V234.872L275.364 234.618V226.653Z"
              fill="#E0E0E0"
            />
            <path
              d="M276.39 227.239L276.616 227.372V235.338L276.39 235.204V227.239Z"
              fill="#E0E0E0"
            />
            <path
              d="M274.552 226.227L274.765 226.36V234.312L274.552 234.192V226.227Z"
              fill="#E0E0E0"
            />
            <path
              d="M270.929 224.109L271.142 224.229V232.194L270.929 232.061V224.109Z"
              fill="#E0E0E0"
            />
            <path
              d="M268.944 222.964L269.157 223.097V231.062L268.944 230.929V222.964Z"
              fill="#E0E0E0"
            />
            <path
              d="M267.519 222.178L267.745 222.311V230.276L267.519 230.143V222.178Z"
              fill="#E0E0E0"
            />
            <path
              d="M265.587 221.005L265.814 221.139V229.104L265.587 228.971V221.005Z"
              fill="#E0E0E0"
            />
            <path
              d="M277.163 227.692L277.602 227.945V235.91L277.163 235.657V227.692Z"
              fill="#E0E0E0"
            />
            <path
              d="M275.751 183.456L279.414 185.574V176.703L275.751 174.585V183.456Z"
              fill="#F0F0F0"
            />
            <path
              d="M219.9 236.057L192.847 220.446L154.978 242.304L182.031 257.929L219.9 236.057Z"
              fill="#F5F5F5"
            />
            <path
              d="M182.031 320.399L219.9 298.541V236.057L182.031 257.928V320.399Z"
              fill="#EBEBEB"
            />
            <path
              d="M188.278 307.972C188.109 307.975 187.942 307.929 187.799 307.838C187.59 307.689 187.423 307.487 187.316 307.254C187.208 307.02 187.163 306.763 187.186 306.506V302.51V302.217H187.386L190.503 300.393V304.828C190.496 305.399 190.354 305.96 190.087 306.465C189.821 306.97 189.438 307.404 188.971 307.732C188.765 307.871 188.526 307.954 188.278 307.972ZM187.692 302.817V306.493C187.667 306.664 187.687 306.839 187.751 307C187.814 307.161 187.917 307.303 188.052 307.412C188.161 307.455 188.279 307.47 188.395 307.456C188.511 307.442 188.622 307.4 188.718 307.332C189.117 307.054 189.445 306.686 189.676 306.258C189.907 305.83 190.035 305.354 190.05 304.868V304.548H188.891L188.664 302.99L187.692 302.817ZM189.291 304.042H190.01V301.298L188.145 302.391L189.064 302.55L189.291 304.042Z"
              fill="white"
            />
            <path
              d="M188.851 311.142C188.784 311.142 188.719 311.115 188.672 311.068C188.625 311.02 188.598 310.956 188.598 310.889V307.545C188.598 307.513 188.604 307.48 188.617 307.45C188.63 307.42 188.649 307.393 188.673 307.371C188.696 307.349 188.724 307.331 188.755 307.32C188.786 307.309 188.818 307.304 188.851 307.306C188.915 307.306 188.976 307.331 189.02 307.376C189.065 307.421 189.091 307.482 189.091 307.545V310.889C189.091 310.954 189.066 311.016 189.021 311.063C188.977 311.11 188.916 311.138 188.851 311.142Z"
              fill="white"
            />
            <path
              d="M187.399 311.968C187.356 311.97 187.313 311.96 187.275 311.939C187.237 311.918 187.206 311.886 187.186 311.848C187.167 311.82 187.154 311.789 187.147 311.756C187.141 311.723 187.142 311.69 187.149 311.657C187.157 311.624 187.171 311.594 187.191 311.567C187.211 311.54 187.237 311.518 187.266 311.502L190.17 309.837C190.198 309.82 190.23 309.809 190.263 309.805C190.296 309.8 190.33 309.803 190.362 309.811C190.394 309.82 190.424 309.835 190.451 309.855C190.477 309.875 190.499 309.901 190.516 309.93C190.532 309.958 190.543 309.988 190.547 310.02C190.551 310.052 190.549 310.085 190.54 310.116C190.532 310.147 190.517 310.176 190.496 310.201C190.476 310.227 190.451 310.247 190.423 310.263L187.519 311.941C187.483 311.962 187.441 311.972 187.399 311.968Z"
              fill="white"
            />
            <path
              d="M197.735 306.227C197.638 306.227 197.542 306.204 197.456 306.16C197.358 306.095 197.28 306.005 197.229 305.9C197.177 305.795 197.154 305.678 197.163 305.561V304.868C197.163 304.805 197.188 304.744 197.233 304.699C197.278 304.654 197.339 304.628 197.402 304.628C197.435 304.627 197.468 304.631 197.498 304.643C197.529 304.654 197.557 304.671 197.581 304.694C197.604 304.716 197.623 304.743 197.636 304.773C197.649 304.803 197.656 304.836 197.655 304.868V305.561C197.655 305.654 197.655 305.707 197.655 305.721C197.655 305.734 197.735 305.721 197.815 305.721C197.968 305.575 198.088 305.399 198.169 305.204C198.249 305.009 198.287 304.799 198.282 304.588V300.153C198.273 300.116 198.273 300.077 198.281 300.04C198.289 300.003 198.306 299.968 198.33 299.938C198.353 299.908 198.383 299.884 198.418 299.867C198.452 299.851 198.49 299.842 198.528 299.842C198.566 299.842 198.604 299.851 198.638 299.867C198.672 299.884 198.703 299.908 198.726 299.938C198.75 299.968 198.767 300.003 198.775 300.04C198.783 300.077 198.783 300.116 198.774 300.153V304.588C198.785 304.885 198.727 305.18 198.605 305.451C198.482 305.721 198.299 305.959 198.068 306.147C197.965 306.199 197.851 306.226 197.735 306.227Z"
              fill="white"
            />
            <path
              d="M195.098 302.364V301.924C195.161 300.817 195.483 299.74 196.039 298.78C196.594 297.82 197.367 297.004 198.295 296.397C198.626 296.114 199.036 295.941 199.469 295.901C199.903 295.861 200.338 295.956 200.715 296.174C201.092 296.392 201.392 296.721 201.574 297.116C201.756 297.511 201.811 297.953 201.731 298.381V298.528L195.098 302.364ZM199.787 296.437C199.347 296.457 198.921 296.59 198.548 296.823C197.755 297.346 197.084 298.033 196.578 298.837C196.073 299.641 195.745 300.544 195.618 301.485L201.239 298.235C201.257 297.921 201.196 297.607 201.061 297.323C200.926 297.039 200.721 296.794 200.466 296.61C200.263 296.494 200.034 296.43 199.8 296.423L199.787 296.437Z"
              fill="white"
            />
            <path
              d="M206.7 301.112C206.633 301.112 206.568 301.085 206.521 301.038C206.473 300.99 206.447 300.926 206.447 300.859V292.361C206.447 292.294 206.473 292.229 206.521 292.182C206.568 292.134 206.633 292.108 206.7 292.108C206.767 292.108 206.831 292.134 206.879 292.182C206.926 292.229 206.953 292.294 206.953 292.361V300.859C206.953 300.926 206.926 300.99 206.879 301.038C206.831 301.085 206.767 301.112 206.7 301.112Z"
              fill="white"
            />
            <path
              d="M205.967 294.372H205.874C205.844 294.36 205.816 294.343 205.793 294.32C205.77 294.297 205.752 294.27 205.739 294.241C205.727 294.211 205.72 294.179 205.721 294.146C205.721 294.114 205.728 294.082 205.741 294.052L206.633 292.001L207.619 293.146C207.661 293.196 207.682 293.26 207.677 293.325C207.672 293.39 207.642 293.45 207.592 293.493C207.568 293.514 207.539 293.53 207.509 293.54C207.478 293.55 207.446 293.554 207.414 293.551C207.349 293.546 207.288 293.516 207.246 293.466L206.766 292.92L206.194 294.252C206.171 294.291 206.138 294.324 206.098 294.345C206.058 294.366 206.012 294.375 205.967 294.372Z"
              fill="white"
            />
            <path
              d="M209.004 299.793C208.939 299.793 208.877 299.769 208.83 299.724C208.783 299.679 208.754 299.618 208.751 299.554V291.055C208.751 290.988 208.778 290.924 208.825 290.876C208.873 290.829 208.937 290.802 209.004 290.802C209.038 290.8 209.072 290.806 209.103 290.818C209.135 290.83 209.163 290.848 209.187 290.872C209.211 290.896 209.23 290.925 209.242 290.956C209.254 290.988 209.259 291.022 209.257 291.055V299.554C209.257 299.586 209.251 299.618 209.238 299.648C209.225 299.678 209.206 299.705 209.182 299.728C209.159 299.75 209.131 299.768 209.1 299.779C209.069 299.79 209.037 299.795 209.004 299.793Z"
              fill="white"
            />
            <path
              d="M208.272 293.04C208.241 293.051 208.208 293.051 208.178 293.04C208.148 293.028 208.121 293.011 208.097 292.988C208.074 292.966 208.056 292.938 208.043 292.909C208.031 292.879 208.025 292.847 208.025 292.814C208.025 292.782 208.032 292.75 208.045 292.72L208.938 290.669L209.923 291.815C209.967 291.862 209.992 291.923 209.992 291.988C209.992 292.052 209.967 292.114 209.923 292.161C209.9 292.185 209.872 292.204 209.841 292.216C209.81 292.229 209.777 292.236 209.743 292.236C209.71 292.236 209.677 292.229 209.646 292.216C209.615 292.204 209.587 292.185 209.564 292.161L209.097 291.615L208.525 292.947C208.496 292.985 208.456 293.013 208.412 293.03C208.367 293.046 208.318 293.05 208.272 293.04Z"
              fill="white"
            />
            <path
              d="M182.031 320.399L154.978 304.788V242.304L182.031 257.928V320.399Z"
              fill="#E0E0E0"
            />
            <path
              d="M167.539 258.435L171.202 260.552V251.681L167.539 249.563V258.435Z"
              fill="#F5F5F5"
            />
            <path
              d="M171.202 251.681L209.084 229.81L205.408 227.692L167.539 249.563L171.202 251.681Z"
              fill="white"
            />
            <path
              d="M171.202 289.164L122.517 261.059L73.8194 289.164L122.517 317.282L171.202 289.164Z"
              fill="#F5F5F5"
            />
            <path
              d="M122.517 354.765L171.202 326.66V289.164L122.517 317.282V354.765Z"
              fill="#EBEBEB"
            />
            <path
              d="M128.764 342.324C128.596 342.321 128.431 342.275 128.285 342.191C128.077 342.04 127.911 341.839 127.804 341.605C127.696 341.372 127.651 341.115 127.672 340.859V336.863V336.57H127.872L130.989 334.732V339.18C130.98 339.749 130.837 340.307 130.571 340.81C130.304 341.312 129.923 341.745 129.457 342.071C129.252 342.214 129.013 342.301 128.764 342.324ZM128.165 337.169V340.845C128.141 341.015 128.162 341.187 128.225 341.346C128.288 341.505 128.391 341.644 128.525 341.751C128.634 341.801 128.754 341.821 128.873 341.809C128.993 341.798 129.107 341.755 129.204 341.685C129.601 341.405 129.929 341.037 130.16 340.609C130.391 340.181 130.52 339.706 130.536 339.22V338.887H129.337L129.111 337.329L128.165 337.169ZM129.763 338.395H130.536V335.664L128.685 336.756L129.604 336.916L129.763 338.395Z"
              fill="white"
            />
            <path
              d="M129.324 345.494C129.292 345.494 129.261 345.488 129.232 345.476C129.203 345.464 129.177 345.446 129.154 345.424C129.132 345.402 129.114 345.375 129.102 345.346C129.09 345.317 129.084 345.286 129.084 345.254V341.911C129.075 341.874 129.075 341.835 129.084 341.798C129.092 341.761 129.109 341.726 129.132 341.696C129.156 341.666 129.186 341.642 129.22 341.626C129.255 341.609 129.292 341.6 129.331 341.6C129.369 341.6 129.406 341.609 129.441 341.626C129.475 341.642 129.505 341.666 129.529 341.696C129.553 341.726 129.569 341.761 129.577 341.798C129.586 341.835 129.586 341.874 129.577 341.911V345.254C129.577 345.287 129.57 345.319 129.558 345.349C129.545 345.379 129.526 345.406 129.502 345.429C129.478 345.451 129.45 345.469 129.42 345.48C129.389 345.491 129.356 345.496 129.324 345.494Z"
              fill="white"
            />
            <path
              d="M127.872 346.32C127.819 346.317 127.768 346.296 127.727 346.262C127.685 346.228 127.656 346.182 127.643 346.13C127.629 346.079 127.633 346.024 127.652 345.974C127.672 345.925 127.707 345.882 127.752 345.854L130.656 344.189C130.682 344.17 130.712 344.157 130.744 344.151C130.776 344.144 130.809 344.145 130.841 344.153C130.872 344.16 130.902 344.174 130.927 344.195C130.953 344.215 130.974 344.24 130.989 344.269C131.008 344.296 131.021 344.327 131.028 344.36C131.034 344.393 131.033 344.427 131.026 344.46C131.018 344.492 131.004 344.523 130.984 344.55C130.964 344.576 130.938 344.599 130.909 344.615L128.005 346.32H127.872Z"
              fill="white"
            />
            <path
              d="M138.208 340.592C138.121 340.612 138.03 340.612 137.942 340.592C137.84 340.528 137.758 340.436 137.704 340.328C137.65 340.221 137.626 340.1 137.636 339.98V339.3C137.636 339.233 137.662 339.169 137.71 339.121C137.757 339.074 137.822 339.047 137.889 339.047C137.956 339.047 138.02 339.074 138.068 339.121C138.115 339.169 138.142 339.233 138.142 339.3V339.98C138.123 340.036 138.123 340.097 138.142 340.153C138.142 340.153 138.222 340.153 138.315 340.153C138.465 340.006 138.583 339.83 138.661 339.635C138.739 339.44 138.775 339.231 138.768 339.021V334.585C138.771 334.519 138.799 334.457 138.845 334.41C138.892 334.363 138.955 334.335 139.021 334.332C139.088 334.332 139.152 334.359 139.2 334.406C139.247 334.454 139.274 334.518 139.274 334.585V339.021C139.285 339.317 139.227 339.613 139.104 339.883C138.982 340.153 138.798 340.392 138.568 340.579C138.451 340.612 138.328 340.616 138.208 340.592Z"
              fill="white"
            />
            <path
              d="M135.584 336.716V336.277C135.642 335.168 135.962 334.089 136.518 333.128C137.073 332.167 137.849 331.352 138.781 330.749C139.112 330.466 139.522 330.293 139.956 330.253C140.389 330.213 140.824 330.308 141.201 330.526C141.578 330.744 141.878 331.073 142.06 331.468C142.242 331.864 142.297 332.306 142.218 332.734V332.88L135.584 336.716ZM140.273 330.789C139.83 330.811 139.4 330.944 139.021 331.175C138.231 331.7 137.562 332.387 137.059 333.191C136.556 333.995 136.23 334.897 136.104 335.837L141.711 332.587C141.733 332.274 141.675 331.961 141.542 331.676C141.409 331.392 141.206 331.146 140.952 330.962C140.745 330.845 140.511 330.785 140.273 330.789Z"
              fill="white"
            />
            <path
              d="M147.186 335.478C147.152 335.479 147.118 335.474 147.087 335.462C147.055 335.45 147.027 335.432 147.003 335.408C146.979 335.384 146.96 335.355 146.948 335.324C146.936 335.292 146.931 335.258 146.933 335.224V326.726C146.924 326.689 146.924 326.651 146.932 326.613C146.941 326.576 146.957 326.541 146.981 326.511C147.005 326.481 147.035 326.457 147.069 326.441C147.104 326.424 147.141 326.416 147.179 326.416C147.217 326.416 147.255 326.424 147.289 326.441C147.324 326.457 147.354 326.481 147.378 326.511C147.401 326.541 147.418 326.576 147.426 326.613C147.435 326.651 147.434 326.689 147.426 326.726V335.224C147.428 335.257 147.423 335.29 147.411 335.32C147.4 335.351 147.383 335.379 147.36 335.403C147.338 335.426 147.311 335.445 147.281 335.458C147.251 335.471 147.219 335.478 147.186 335.478Z"
              fill="white"
            />
            <path
              d="M146.52 328.671H146.413C146.383 328.658 146.355 328.639 146.332 328.615C146.309 328.591 146.291 328.562 146.28 328.531C146.269 328.5 146.264 328.466 146.267 328.433C146.269 328.4 146.278 328.367 146.294 328.338L147.173 326.287L148.172 327.432C148.216 327.483 148.238 327.55 148.233 327.618C148.228 327.685 148.196 327.748 148.145 327.792C148.094 327.836 148.027 327.858 147.96 327.853C147.892 327.848 147.83 327.816 147.785 327.765L147.319 327.219L146.746 328.551C146.723 328.589 146.689 328.621 146.65 328.642C146.61 328.663 146.565 328.673 146.52 328.671Z"
              fill="white"
            />
            <path
              d="M149.49 334.159C149.423 334.159 149.359 334.132 149.311 334.085C149.264 334.037 149.237 333.973 149.237 333.906V325.408C149.237 325.341 149.264 325.276 149.311 325.229C149.359 325.181 149.423 325.155 149.49 325.155C149.557 325.155 149.622 325.181 149.669 325.229C149.717 325.276 149.743 325.341 149.743 325.408V333.906C149.743 333.973 149.717 334.037 149.669 334.085C149.622 334.132 149.557 334.159 149.49 334.159Z"
              fill="white"
            />
            <path
              d="M148.758 327.352H148.665C148.634 327.341 148.607 327.323 148.584 327.3C148.56 327.278 148.542 327.251 148.53 327.221C148.517 327.191 148.511 327.159 148.511 327.127C148.512 327.094 148.518 327.062 148.531 327.033L149.424 324.968L150.409 326.114C150.433 326.137 150.452 326.165 150.465 326.196C150.478 326.227 150.484 326.26 150.484 326.293C150.484 326.327 150.478 326.36 150.465 326.391C150.452 326.422 150.433 326.45 150.409 326.473C150.387 326.497 150.36 326.515 150.33 326.528C150.301 326.541 150.269 326.547 150.236 326.547C150.204 326.547 150.172 326.541 150.142 326.528C150.112 326.515 150.086 326.497 150.063 326.473L149.584 325.927L149.011 327.259C148.983 327.298 148.944 327.328 148.899 327.345C148.854 327.361 148.804 327.364 148.758 327.352Z"
              fill="white"
            />
            <path
              d="M122.517 354.765L73.8194 326.66V289.164L122.517 317.282V354.765Z"
              fill="#E0E0E0"
            />
            <path
              d="M96.3302 311.035L99.9932 313.153V304.282L96.3302 302.164V311.035Z"
              fill="#F5F5F5"
            />
            <path
              d="M99.9932 304.282L148.691 276.177L145.028 274.046L96.3302 302.164L99.9932 304.282Z"
              fill="white"
            />
            <path
              d="M81.5317 312.367L93.1468 319.027C93.8187 319.466 94.3785 320.056 94.781 320.75C95.1836 321.444 95.4176 322.222 95.4644 323.023V330.203C95.4644 331.668 94.4255 332.267 93.1468 331.535L81.5317 324.875C80.86 324.437 80.3012 323.847 79.9007 323.153C79.5003 322.458 79.2695 321.679 79.2274 320.879V313.713C79.2274 312.221 80.2663 311.688 81.5317 312.367Z"
              fill="#F5F5F5"
            />
            <path
              d="M80.6393 314.152L81.0788 314.405V322.371L80.6393 322.118V314.152Z"
              fill="#E0E0E0"
            />
            <path
              d="M82.4242 315.191L83.1967 315.644V323.596L82.4242 323.157V315.191Z"
              fill="#E0E0E0"
            />
            <path
              d="M84.2224 316.23L84.6752 316.483L84.6619 324.449L84.2224 324.195V316.23Z"
              fill="#E0E0E0"
            />
            <path
              d="M85.581 317.003L86.4734 317.522L86.4601 325.488L85.581 324.955V317.003Z"
              fill="#E0E0E0"
            />
            <path
              d="M87.8188 318.308L88.2583 318.561V326.526L87.8188 326.26V318.308Z"
              fill="#E0E0E0"
            />
            <path
              d="M89.1108 319.041L90.0565 319.6V327.552L89.1108 326.993V319.041Z"
              fill="#E0E0E0"
            />
            <path
              d="M91.4152 320.386L91.8547 320.639V328.591L91.4152 328.338V320.386Z"
              fill="#E0E0E0"
            />
            <path
              d="M92.4408 320.959L92.6672 321.092V329.044L92.4408 328.924V320.959Z"
              fill="#E0E0E0"
            />
            <path
              d="M90.6026 319.946L90.8158 320.066V328.032L90.6026 327.912V319.946Z"
              fill="#E0E0E0"
            />
            <path
              d="M86.9796 317.828L87.1927 317.948V325.914L86.9796 325.781V317.828Z"
              fill="#E0E0E0"
            />
            <path
              d="M84.9949 316.683L85.2214 316.816V324.768L84.9949 324.648V316.683Z"
              fill="#E0E0E0"
            />
            <path
              d="M83.5697 315.897L83.7961 316.03V323.996L83.5697 323.862V315.897Z"
              fill="#E0E0E0"
            />
            <path
              d="M81.6383 314.725L81.8647 314.858V322.81L81.6383 322.69V314.725Z"
              fill="#E0E0E0"
            />
            <path
              d="M93.2134 321.412L93.6529 321.678V329.63L93.2134 329.377V321.412Z"
              fill="#E0E0E0"
            />
            <path
              d="M160.386 214.199L122.517 192.328L84.6353 214.199L122.517 236.057L160.386 214.199Z"
              fill="#F5F5F5"
            />
            <path
              d="M122.517 311.035L160.386 289.164V214.199L122.517 236.057V311.035Z"
              fill="#EBEBEB"
            />
            <path
              d="M128.764 298.594C128.597 298.596 128.432 298.555 128.285 298.475C128.077 298.324 127.911 298.122 127.804 297.889C127.696 297.656 127.651 297.399 127.672 297.143V293.147V292.854H127.872L130.989 291.029V295.464C130.981 296.035 130.838 296.596 130.572 297.1C130.306 297.605 129.924 298.04 129.457 298.368C129.25 298.503 129.011 298.581 128.764 298.594ZM128.165 293.44V297.129C128.144 297.298 128.166 297.47 128.229 297.628C128.292 297.787 128.393 297.926 128.525 298.035C128.634 298.085 128.754 298.105 128.873 298.093C128.993 298.082 129.107 298.038 129.204 297.968C129.602 297.686 129.929 297.315 130.16 296.885C130.391 296.456 130.52 295.978 130.536 295.491V295.171H129.337L129.111 293.613L128.165 293.44ZM129.763 294.665H130.536V291.934L128.685 293.027L129.604 293.187L129.763 294.665Z"
              fill="white"
            />
            <path
              d="M129.324 301.765C129.291 301.765 129.259 301.758 129.229 301.745C129.199 301.732 129.172 301.713 129.149 301.69C129.127 301.666 129.11 301.638 129.098 301.607C129.087 301.577 129.082 301.544 129.084 301.511V298.181C129.082 298.149 129.087 298.116 129.098 298.086C129.11 298.055 129.127 298.027 129.149 298.003C129.172 297.98 129.199 297.961 129.229 297.948C129.259 297.935 129.291 297.928 129.324 297.928C129.358 297.926 129.391 297.932 129.423 297.944C129.455 297.956 129.483 297.974 129.507 297.998C129.531 298.022 129.55 298.051 129.562 298.082C129.574 298.114 129.579 298.148 129.577 298.181V301.511C129.579 301.545 129.574 301.579 129.562 301.611C129.55 301.642 129.531 301.671 129.507 301.695C129.483 301.719 129.455 301.737 129.423 301.749C129.391 301.761 129.358 301.766 129.324 301.765Z"
              fill="white"
            />
            <path
              d="M127.872 302.604C127.819 302.6 127.768 302.58 127.727 302.546C127.685 302.512 127.656 302.466 127.643 302.414C127.629 302.362 127.633 302.308 127.652 302.258C127.672 302.208 127.707 302.166 127.752 302.138L130.656 300.459C130.714 300.426 130.783 300.417 130.848 300.434C130.913 300.452 130.969 300.494 131.002 300.552C131.036 300.611 131.045 300.68 131.027 300.745C131.01 300.81 130.967 300.865 130.909 300.899L128.005 302.564C127.966 302.591 127.919 302.605 127.872 302.604Z"
              fill="white"
            />
            <path
              d="M138.208 296.863C138.114 296.863 138.021 296.835 137.942 296.783C137.84 296.721 137.758 296.633 137.703 296.527C137.649 296.421 137.626 296.302 137.636 296.184V295.504C137.636 295.437 137.662 295.373 137.71 295.325C137.757 295.278 137.822 295.251 137.889 295.251C137.956 295.251 138.02 295.278 138.068 295.325C138.115 295.373 138.142 295.437 138.142 295.504V296.184C138.123 296.24 138.123 296.3 138.142 296.357C138.198 296.373 138.258 296.373 138.315 296.357C138.467 296.214 138.586 296.04 138.664 295.847C138.743 295.654 138.778 295.446 138.768 295.238V290.802C138.768 290.735 138.794 290.671 138.842 290.623C138.889 290.576 138.954 290.549 139.021 290.549C139.055 290.547 139.088 290.553 139.12 290.565C139.152 290.577 139.18 290.595 139.204 290.619C139.228 290.643 139.247 290.672 139.259 290.703C139.271 290.735 139.276 290.769 139.274 290.802V295.238C139.285 295.535 139.227 295.83 139.104 296.1C138.982 296.371 138.798 296.609 138.568 296.796C138.455 296.847 138.332 296.87 138.208 296.863Z"
              fill="white"
            />
            <path
              d="M135.584 293.04V292.614C135.644 291.504 135.965 290.424 136.52 289.461C137.076 288.498 137.85 287.68 138.781 287.073C139.115 286.796 139.525 286.629 139.957 286.593C140.389 286.558 140.822 286.655 141.196 286.873C141.571 287.091 141.87 287.418 142.052 287.811C142.235 288.204 142.293 288.644 142.218 289.071V289.204L135.584 293.04ZM140.273 287.126C139.83 287.148 139.4 287.281 139.021 287.512C138.232 288.035 137.564 288.721 137.061 289.522C136.558 290.324 136.232 291.223 136.104 292.161L141.711 288.924C141.736 288.611 141.678 288.297 141.545 288.012C141.412 287.727 141.208 287.482 140.952 287.299C140.752 287.158 140.517 287.075 140.273 287.059V287.126Z"
              fill="white"
            />
            <path
              d="M147.186 291.708C147.119 291.708 147.055 291.681 147.007 291.634C146.96 291.586 146.933 291.522 146.933 291.455V282.957C146.924 282.92 146.924 282.881 146.932 282.844C146.941 282.807 146.957 282.772 146.981 282.742C147.005 282.712 147.035 282.688 147.069 282.671C147.104 282.655 147.141 282.646 147.179 282.646C147.217 282.646 147.255 282.655 147.289 282.671C147.324 282.688 147.354 282.712 147.378 282.742C147.401 282.772 147.418 282.807 147.426 282.844C147.435 282.881 147.434 282.92 147.426 282.957V291.455C147.426 291.52 147.401 291.582 147.356 291.629C147.312 291.676 147.251 291.705 147.186 291.708Z"
              fill="white"
            />
            <path
              d="M146.52 284.928H146.413C146.383 284.915 146.355 284.896 146.332 284.872C146.309 284.848 146.291 284.819 146.28 284.788C146.269 284.757 146.264 284.723 146.267 284.69C146.269 284.657 146.278 284.625 146.294 284.595L147.173 282.544L148.172 283.689C148.216 283.736 148.24 283.798 148.24 283.863C148.24 283.927 148.216 283.989 148.172 284.036C148.123 284.081 148.058 284.106 147.992 284.106C147.925 284.106 147.861 284.081 147.812 284.036L147.346 283.49L146.773 284.822C146.747 284.863 146.709 284.896 146.663 284.915C146.618 284.934 146.568 284.938 146.52 284.928Z"
              fill="white"
            />
            <path
              d="M149.49 290.376C149.424 290.373 149.362 290.345 149.315 290.298C149.268 290.252 149.241 290.189 149.237 290.123V281.625C149.237 281.558 149.264 281.493 149.311 281.446C149.359 281.398 149.423 281.372 149.49 281.372C149.557 281.372 149.622 281.398 149.669 281.446C149.717 281.493 149.743 281.558 149.743 281.625V290.123C149.74 290.189 149.713 290.252 149.666 290.298C149.619 290.345 149.556 290.373 149.49 290.376Z"
              fill="white"
            />
            <path
              d="M148.758 283.623H148.665C148.634 283.61 148.606 283.591 148.583 283.567C148.559 283.543 148.541 283.515 148.529 283.484C148.516 283.453 148.51 283.42 148.511 283.387C148.511 283.353 148.518 283.32 148.531 283.29L149.424 281.239L150.409 282.384C150.433 282.408 150.452 282.436 150.465 282.466C150.478 282.497 150.484 282.53 150.484 282.564C150.484 282.597 150.478 282.63 150.465 282.661C150.452 282.692 150.433 282.72 150.409 282.744C150.361 282.785 150.3 282.808 150.236 282.808C150.173 282.808 150.111 282.785 150.063 282.744L149.584 282.198L149.011 283.53C148.982 283.567 148.943 283.596 148.898 283.613C148.853 283.629 148.804 283.633 148.758 283.623Z"
              fill="white"
            />
            <path
              d="M122.517 311.035L84.6353 289.164V214.199L122.517 236.057V311.035Z"
              fill="#E0E0E0"
            />
            <path
              d="M102.604 233.433L106.28 235.551V226.693L102.604 224.562V233.433Z"
              fill="#F5F5F5"
            />
            <path
              d="M106.28 226.693L144.149 204.822L140.486 202.704L102.604 224.562L106.28 226.693Z"
              fill="white"
            />
            <path
              d="M92.3476 274.872L103.963 281.532C104.635 281.968 105.194 282.558 105.595 283.253C105.996 283.947 106.226 284.727 106.267 285.528V292.694C106.267 294.159 105.241 294.758 103.963 294.026L92.3476 287.366C91.6734 286.93 91.1119 286.34 90.7091 285.646C90.3063 284.951 90.0735 284.171 90.0299 283.37V276.204C90.0432 274.738 91.0688 274.139 92.3476 274.872Z"
              fill="#F5F5F5"
            />
            <path
              d="M91.4418 276.67L91.8814 276.923V284.888L91.4418 284.622V276.67Z"
              fill="#E0E0E0"
            />
            <path
              d="M93.24 277.709L93.9992 278.148V286.114L93.24 285.661V277.709Z"
              fill="#E0E0E0"
            />
            <path
              d="M95.0382 278.734L95.4778 279.001V286.953L95.0382 286.7V278.734Z"
              fill="#E0E0E0"
            />
            <path
              d="M96.3968 279.507L97.276 280.04V287.992L96.3968 287.472V279.507Z"
              fill="#E0E0E0"
            />
            <path
              d="M98.6346 280.812L99.0742 281.065V289.031L98.6346 288.778V280.812Z"
              fill="#E0E0E0"
            />
            <path
              d="M99.9266 281.545L100.872 282.104V290.07L99.9266 289.51V281.545Z"
              fill="#E0E0E0"
            />
            <path
              d="M102.231 282.89L102.671 283.143V291.109L102.231 290.842V282.89Z"
              fill="#E0E0E0"
            />
            <path
              d="M103.257 283.476L103.47 283.596V291.561L103.257 291.428V283.476Z"
              fill="#E0E0E0"
            />
            <path
              d="M101.405 282.451L101.632 282.584V290.549L101.405 290.416V282.451Z"
              fill="#E0E0E0"
            />
            <path
              d="M97.7821 280.333L98.0086 280.466V288.418L97.7821 288.298V280.333Z"
              fill="#E0E0E0"
            />
            <path
              d="M95.7974 279.2L96.0239 279.32V287.286L95.7974 287.152V279.2Z"
              fill="#E0E0E0"
            />
            <path
              d="M94.3855 278.415L94.5986 278.535V286.5L94.3855 286.367V278.415Z"
              fill="#E0E0E0"
            />
            <path
              d="M92.4541 277.242L92.6672 277.362V285.328L92.4541 285.194V277.242Z"
              fill="#E0E0E0"
            />
            <path
              d="M104.016 283.929L104.469 284.182V292.134L104.016 291.881V283.929Z"
              fill="#E0E0E0"
            />
            <path
              d="M84.9949 420.579L230.369 504.495C232.157 505.402 234.133 505.875 236.137 505.875C238.141 505.875 240.117 505.402 241.905 504.495L560.426 320.679C563.609 318.841 563.609 315.857 560.426 314.019L415.051 230.103C413.266 229.19 411.289 228.714 409.284 228.714C407.278 228.714 405.302 229.19 403.516 230.103L84.9949 413.919C81.8114 415.757 81.8114 418.741 84.9949 420.579Z"
              fill="#455A64"
            />
            <path
              d="M163.57 459.54C166.048 460.791 168.785 461.442 171.562 461.442C174.338 461.442 177.075 460.791 179.554 459.54C183.989 456.983 183.989 452.88 179.554 450.283C177.077 449.026 174.339 448.371 171.562 448.371C168.784 448.371 166.046 449.026 163.57 450.283C159.134 452.88 159.134 457.009 163.57 459.54Z"
              fill="#263238"
            />
            <path
              d="M233.1 504.495L87.7255 420.579C84.875 418.927 84.582 416.37 86.8331 414.532C85.4113 415.656 84.2423 417.068 83.4023 418.674C82.5623 420.281 82.0702 422.046 81.958 423.856V429.277C82.0673 431.278 82.6464 433.225 83.6485 434.961C84.6505 436.697 86.0472 438.172 87.7255 439.267L233.1 523.183C234.878 524.111 236.863 524.57 238.868 524.515V505.88C236.858 505.919 234.873 505.442 233.1 504.495Z"
              fill="#37474F"
            />
            <path
              d="M560.412 339.354C562.095 338.261 563.495 336.787 564.5 335.051C565.504 333.315 566.085 331.366 566.193 329.364V323.942C566.085 322.131 565.594 320.363 564.751 318.755C563.908 317.148 562.733 315.738 561.305 314.618C563.569 316.457 563.276 319.014 560.426 320.652L241.905 504.495C240.126 505.42 238.141 505.878 236.137 505.827V524.568C238.141 524.62 240.126 524.161 241.905 523.236L560.412 339.354Z"
              fill="#263238"
            />
            <path
              d="M254.319 487.112L115.178 406.74C113.26 405.634 113.26 403.836 115.178 402.744L384.136 247.419C385.209 246.874 386.395 246.59 387.599 246.59C388.802 246.59 389.989 246.874 391.062 247.419L530.256 327.779C532.161 328.884 532.161 330.669 530.256 331.775L261.192 487.112C260.126 487.649 258.949 487.928 257.755 487.928C256.562 487.928 255.385 487.649 254.319 487.112Z"
              fill="white"
            />
            <path
              d="M198.255 442.237L214.492 432.86L209.084 429.743L192.847 439.107L198.255 442.237Z"
              fill="#F3C677"
            />
            <path
              d="M393.047 329.777L409.284 320.399L403.862 317.282L387.639 326.66L393.047 329.777Z"
              fill="#F3C677"
            />
            <path
              d="M425.507 311.035L441.744 301.658L436.337 298.541L420.099 307.905L425.507 311.035Z"
              fill="#F3C677"
            />
            <path
              d="M477.615 278.202C478.246 278.517 478.941 278.681 479.647 278.681C480.352 278.681 481.047 278.517 481.678 278.202C481.922 278.118 482.135 277.96 482.285 277.75C482.435 277.54 482.516 277.288 482.516 277.029C482.516 276.771 482.435 276.519 482.285 276.309C482.135 276.099 481.922 275.941 481.678 275.857C481.049 275.536 480.353 275.368 479.647 275.368C478.94 275.368 478.244 275.536 477.615 275.857C477.371 275.941 477.158 276.099 477.008 276.309C476.858 276.519 476.777 276.771 476.777 277.029C476.777 277.288 476.858 277.54 477.008 277.75C477.158 277.96 477.371 278.118 477.615 278.202Z"
              fill="#263238"
            />
            <path
              d="M484.102 296.597C485.359 297.233 486.749 297.565 488.158 297.565C489.567 297.565 490.957 297.233 492.214 296.597C494.452 295.265 494.452 293.2 492.214 291.908C490.957 291.271 489.567 290.939 488.158 290.939C486.749 290.939 485.359 291.271 484.102 291.908C481.864 293.2 481.864 295.304 484.102 296.597Z"
              fill="#263238"
            />
            <path
              d="M478.375 288.445C479.866 287.579 479.786 286.14 478.201 285.221L451.561 269.81C450.704 269.35 449.75 269.101 448.777 269.082C447.804 269.064 446.841 269.277 445.967 269.703C444.475 270.569 444.555 272.008 446.14 272.927L472.86 288.338C473.708 288.784 474.647 289.025 475.605 289.044C476.562 289.062 477.51 288.857 478.375 288.445Z"
              fill="#263238"
            />
            <path
              d="M432.9 225.947L433.806 225.414C433.18 227.687 432.875 230.037 432.9 232.394V235.644C432.9 247.312 446.899 277.123 452.054 287.672C452.587 288.778 445.514 296.303 445.514 296.303L453.919 291.455C453.919 291.455 474.925 274.139 474.925 259.913V256.663C474.925 242.371 465.521 225.361 453.919 218.661C448.058 215.291 442.77 215.171 438.961 217.729L430.969 222.311L432.9 225.947ZM443.41 236.856C443.41 230.196 448.111 227.439 453.919 230.796C453.439 235.098 461.298 248.498 464.415 248.991C464.415 255.651 459.713 258.408 453.919 255.051C450.869 253.053 448.333 250.365 446.516 247.203C444.7 244.042 443.654 240.497 443.463 236.856H443.41Z"
              fill="#EF534C"
            />
            <path
              d="M424.255 240.852C424.495 255.131 446.18 296.303 446.18 296.303C446.18 296.303 466.906 278.694 466.679 264.415V261.165C466.44 246.886 456.756 230.023 445.034 223.523C433.313 217.023 424.016 223.31 424.255 237.602V240.852ZM434.778 241.891C434.672 235.231 439.334 232.394 445.181 235.644C448.272 237.587 450.861 240.232 452.738 243.363C454.615 246.494 455.727 250.024 455.984 253.666C456.103 260.326 451.441 263.163 445.581 259.913C442.493 257.966 439.907 255.321 438.031 252.19C436.154 249.059 435.04 245.532 434.778 241.891Z"
              fill="#EF534C"
            />
            <path
              opacity="0.1"
              d="M424.255 240.852C424.495 255.131 446.18 296.303 446.18 296.303C446.18 296.303 466.906 278.694 466.679 264.415V261.165C466.44 246.886 456.756 230.023 445.034 223.523C433.313 217.023 424.016 223.31 424.255 237.602V240.852ZM434.778 241.891C434.672 235.231 439.334 232.394 445.181 235.644C448.272 237.587 450.861 240.232 452.738 243.363C454.615 246.494 455.727 250.024 455.984 253.666C456.103 260.326 451.441 263.163 445.581 259.913C442.493 257.966 439.907 255.321 438.031 252.19C436.154 249.059 435.04 245.532 434.778 241.891Z"
              fill="black"
            />
            <path
              d="M221.112 431.288C234.579 439.041 266.147 433.406 291.628 418.688L361.625 378.288C387.106 363.569 396.829 345.374 383.336 337.635C369.843 329.896 338.248 335.557 312.74 350.263L242.877 390.609C217.409 405.314 207.659 423.576 221.112 431.288Z"
              fill="#F0F0F0"
            />
            <path
              d="M424.908 92.6006H424.975L436.496 85.9406H436.59C443.849 82.2643 453.546 83.2766 463.989 90.0698C484.981 103.576 501.005 134.745 499.793 159.667C499.18 172.094 494.465 180.619 487.179 184.375H487.112L475.577 191.035H475.497C468.238 194.725 458.528 193.699 448.072 186.92C427.093 173.4 411.069 142.244 412.281 117.323C412.92 104.882 417.702 96.3568 424.908 92.6006Z"
              fill="#37474F"
            />
            <path
              d="M476.163 190.689L487.152 184.296H487.232C494.452 180.526 499.22 172.001 499.833 159.587C500.366 148.478 497.475 136.13 492.254 124.662L480.719 131.322C485.954 142.79 488.844 155.138 488.298 166.26C487.725 178.381 483.143 186.813 476.163 190.689Z"
              fill="#263238"
            />
            <path
              d="M448.125 186.906C427.146 173.386 411.122 142.231 412.334 117.309C413.546 92.3875 431.568 83.1301 452.507 96.6365C473.446 110.143 489.523 141.312 488.311 166.234C487.099 191.155 469.104 200.413 448.125 186.906Z"
              fill="#455A64"
            />
            <path
              d="M465.707 185.148C478.081 185.747 480.093 171.828 480.359 165.834C481.425 143.856 466.693 115.218 448.191 103.297C444.249 100.535 439.661 98.8376 434.871 98.3681C422.51 97.7687 420.499 111.688 420.219 117.682C419.154 139.66 433.872 168.298 452.387 180.286C456.329 183.048 460.917 184.745 465.707 185.215V185.148Z"
              fill="#FAFAFA"
            />
            <path
              d="M447.898 145.894C448.044 145.894 448.189 145.867 448.325 145.814C448.603 145.724 448.843 145.544 449.01 145.304C449.176 145.063 449.258 144.774 449.244 144.482V112.74C449.244 112.387 449.103 112.048 448.854 111.799C448.604 111.549 448.265 111.408 447.912 111.408C447.558 111.408 447.22 111.549 446.97 111.799C446.72 112.048 446.58 112.387 446.58 112.74V140.619L431.755 121.572C431.535 121.289 431.213 121.105 430.858 121.06C430.504 121.015 430.146 121.113 429.863 121.332C429.58 121.551 429.396 121.873 429.351 122.228C429.306 122.583 429.404 122.941 429.623 123.223L446.873 145.374C446.994 145.532 447.149 145.661 447.327 145.751C447.504 145.84 447.699 145.889 447.898 145.894Z"
              fill="#37474F"
            />
            <path
              d="M455.544 169.377C455.606 169.389 455.669 169.389 455.731 169.377C455.872 169.334 455.991 169.237 456.063 169.108C456.135 168.979 456.154 168.827 456.117 168.684L448.644 143.523C448.602 143.38 448.504 143.259 448.373 143.188C448.242 143.117 448.088 143.101 447.945 143.143C447.802 143.186 447.682 143.283 447.61 143.414C447.539 143.545 447.523 143.7 447.565 143.843L455.025 169.004C455.063 169.112 455.133 169.205 455.226 169.272C455.319 169.339 455.43 169.375 455.544 169.377Z"
              fill="#EF534C"
            />
            <path
              d="M448.325 138.182C445.847 136.597 443.729 137.689 443.596 140.619C443.604 142.218 443.989 143.791 444.721 145.213C445.452 146.634 446.509 147.862 447.805 148.798C450.269 150.396 452.387 149.304 452.534 146.373C452.522 144.774 452.136 143.199 451.405 141.776C450.673 140.353 449.618 139.122 448.325 138.182Z"
              fill="#EF534C"
            />
            <path
              d="M230.729 423.496L246.953 414.119L241.545 411.002L225.321 420.366L230.729 423.496Z"
              fill="#F9564F"
            />
            <path
              d="M263.19 404.755L279.427 395.377L274.006 392.261L257.782 401.625L263.19 404.755Z"
              fill="#F9564F"
            />
            <path
              d="M256.517 400.932C256.517 408.764 251.029 418.248 244.249 422.244C240.639 424.335 237.389 424.402 235.151 422.83C234.249 422.121 233.508 421.228 232.978 420.211C232.447 419.194 232.139 418.075 232.074 416.929C232.53 416.717 232.975 416.481 233.406 416.223C240.186 412.321 245.674 402.797 245.674 394.911C245.68 394.328 245.645 393.745 245.568 393.166C246.584 392.629 247.7 392.309 248.847 392.226C249.994 392.143 251.145 392.3 252.228 392.687C254.892 393.806 256.517 396.696 256.517 400.932Z"
              fill="#263238"
            />
            <path
              d="M257.622 384.841L257.396 384.708C253.986 382.897 249.404 383.23 244.249 386.187C233.793 392.221 225.308 406.899 225.308 418.981C225.308 425.055 227.452 429.304 230.916 431.275C234.379 433.246 239.054 432.913 244.236 429.943C254.692 423.909 263.163 409.217 263.163 397.136C263.177 391.062 261.072 386.813 257.622 384.841ZM244.302 422.217C240.679 424.309 237.429 424.375 235.191 422.79C233.22 421.458 232.021 418.794 232.021 415.131C232.021 407.312 237.522 397.815 244.302 393.819C247.392 392.034 250.203 391.728 252.294 392.647C254.878 393.753 256.503 396.643 256.503 400.905C256.517 408.791 251.029 418.315 244.249 422.244L244.302 422.217Z"
              fill="#37474F"
            />
            <path
              d="M252.92 393.007L252.774 392.927C250.563 391.741 247.566 391.968 244.249 393.872C237.469 397.788 231.968 407.312 231.968 415.184C231.968 419.18 233.3 421.844 235.604 423.176C237.909 424.508 240.932 424.242 244.249 422.297C251.029 418.381 256.517 408.857 256.517 400.985C256.517 397.043 255.145 394.272 252.92 393.007ZM244.249 419.447C241.345 421.125 238.734 421.178 236.923 419.9C235.351 418.794 234.379 416.676 234.379 413.746C234.565 410.322 235.556 406.99 237.271 404.021C238.986 401.052 241.377 398.529 244.249 396.656C245.182 396.005 246.254 395.58 247.38 395.416C248.506 395.252 249.655 395.352 250.736 395.71C252.814 396.603 254.119 398.921 254.119 402.37C253.933 405.793 252.943 409.123 251.228 412.09C249.513 415.057 247.122 417.578 244.249 419.447Z"
              fill="#F9564F"
            />
            <path
              d="M295.651 386L311.888 376.636L306.48 373.506L290.243 382.883L295.651 386Z"
              fill="#F9564F"
            />
            <path
              d="M328.125 367.259L344.349 357.895L338.941 354.765L322.704 364.142L328.125 367.259Z"
              fill="#F9564F"
            />
            <path
              d="M360.586 348.518L376.809 339.154L371.402 336.024L355.164 345.401L360.586 348.518Z"
              fill="#F9564F"
            />
            <path
              d="M279.8 261.365C279.97 261.138 280.207 260.972 280.478 260.889C280.749 260.807 281.039 260.813 281.306 260.906C281.573 261 281.804 261.176 281.964 261.409C282.124 261.643 282.206 261.921 282.198 262.204C282.302 262.962 282.224 263.734 281.972 264.457C281.72 265.179 281.299 265.832 280.746 266.36C279.68 267.279 278.601 266.906 278.348 265.521C278.245 264.763 278.323 263.991 278.575 263.269C278.827 262.546 279.247 261.894 279.8 261.365Z"
              fill="#F9564F"
            />
            <path
              d="M292.294 267.252L281.438 260.979L279.054 266.72L289.95 273.007L292.294 267.252Z"
              fill="#F9564F"
            />
            <path
              d="M290.629 267.612C291.695 266.706 292.76 267.079 293.027 268.465C293.125 269.222 293.043 269.991 292.789 270.711C292.534 271.431 292.114 272.08 291.561 272.607C290.496 273.526 289.417 273.153 289.164 271.768C289.067 271.009 289.149 270.238 289.403 269.516C289.658 268.794 290.077 268.142 290.629 267.612Z"
              fill="#F9564F"
            />
            <path
              d="M374.066 320.146C374.066 320.413 374.066 320.652 374.066 320.919C374.066 321.452 374.066 321.998 374.066 322.544C371.908 321.625 369.097 321.931 366.007 323.716C359.227 327.632 353.726 337.156 353.726 345.028C353.726 348.678 354.925 351.315 356.896 352.687C356.343 353.081 355.769 353.445 355.178 353.779L354.552 354.099L352.674 361.172L341.804 355.111C338.368 353.127 336.25 348.891 336.25 342.844C336.25 330.762 344.722 316.084 355.178 310.036C360.346 307.053 365.021 306.746 368.498 308.704L379.154 314.672L379.38 314.805L374.066 320.146Z"
              fill="#455A64"
            />
            <path
              d="M379.367 314.685L379.14 314.552C375.731 312.74 371.148 313.073 365.994 316.03C355.537 322.064 347.053 336.743 347.053 348.824C347.053 354.898 349.197 359.147 352.66 361.118C356.124 363.09 360.799 362.757 365.98 359.786C376.437 353.752 384.908 339.061 384.908 326.979C384.948 320.905 382.803 316.656 379.367 314.685ZM366.047 352.061C362.424 354.152 359.174 354.219 356.936 352.634C354.965 351.302 353.766 348.638 353.766 344.975C353.766 337.156 359.267 327.659 366.047 323.663C369.137 321.878 371.948 321.571 374.105 322.49C376.69 323.596 378.315 326.486 378.315 330.749C378.288 338.634 372.774 348.158 365.994 352.061H366.047Z"
              fill="#37474F"
            />
            <path
              d="M378.288 330.802C378.288 338.634 372.8 348.118 366.02 352.114C362.411 354.205 359.16 354.272 356.923 352.7C356.021 351.991 355.28 351.099 354.749 350.081C354.219 349.064 353.911 347.945 353.846 346.799C354.301 346.587 354.746 346.351 355.178 346.094C361.958 342.191 367.446 332.667 367.446 324.782C367.452 324.198 367.416 323.615 367.339 323.037C368.355 322.499 369.472 322.179 370.619 322.096C371.765 322.014 372.916 322.171 373.999 322.557C376.636 323.676 378.288 326.54 378.288 330.802Z"
              fill="#263238"
            />
            <path
              d="M374.665 322.85L374.518 322.757C372.307 321.585 369.297 321.798 365.994 323.716C359.214 327.632 353.713 337.143 353.713 345.028C353.713 349.024 355.045 351.688 357.349 353.02C359.653 354.352 362.677 354.072 365.994 352.128C372.774 348.225 378.261 338.701 378.261 330.816C378.288 326.886 376.956 324.129 374.665 322.85ZM365.994 349.277C363.077 350.969 360.466 351.022 358.668 349.743C357.083 348.638 356.124 346.52 356.124 343.589C356.31 340.166 357.301 336.834 359.016 333.865C360.731 330.896 363.121 328.372 365.994 326.5C368.471 325.061 370.736 324.808 372.467 325.554C374.545 326.447 375.85 328.764 375.85 332.214C375.665 335.633 374.676 338.96 372.964 341.925C371.251 344.89 368.863 347.409 365.994 349.277Z"
              fill="#F9564F"
            />
            <path
              d="M355.165 334.785L385.801 317.096C389.357 315.031 377.809 302.977 369.217 302.164C364.487 301.593 359.69 302.047 355.151 303.496C355.151 303.496 361.691 311.874 360.572 316.63C359.454 321.385 355.165 334.785 355.165 334.785Z"
              fill="#F9564F"
            />
            <path
              d="M311.888 284.795C311.888 284.795 356.297 307.199 358.215 308.544C360.133 309.89 358.215 325.514 355.164 334.785C352.114 344.056 347.426 358.308 345.547 362.304C343.669 366.3 341.218 367.792 336.716 370.389L304.748 388.864L261.472 394.139L244.289 384.815L248.764 356.696C248.764 356.696 294.758 332.227 301.059 328.591C307.359 324.955 325.994 307.892 311.888 284.795Z"
              fill="#F9564F"
            />
            <path
              opacity="0.2"
              d="M311.888 284.795C311.888 284.795 356.297 307.199 358.215 308.544C360.133 309.89 358.215 325.514 355.164 334.785C352.114 344.056 347.426 358.308 345.547 362.304C343.669 366.3 341.218 367.792 336.716 370.389L304.748 388.864L261.472 394.139L244.289 384.815L248.764 356.696C248.764 356.696 294.758 332.227 301.059 328.591C307.359 324.955 325.994 307.892 311.888 284.795Z"
              fill="black"
            />
            <path
              d="M359.067 329.444C363.063 318.708 366.047 309.81 365.541 303.803C364.928 296.676 362.264 290.856 350.516 287.925C338.768 284.995 322.344 285.048 322.344 285.048L317.349 287.938C317.349 287.938 351.129 307.519 354.965 309.65C357.309 310.982 359.813 316.856 355.218 334.798L356.004 335.251C356.39 335.491 357.789 332.893 359.067 329.444Z"
              fill="#F9564F"
            />
            <path
              opacity="0.3"
              d="M359.067 329.444C363.063 318.708 366.047 309.81 365.541 303.803C364.928 296.676 362.264 290.856 350.516 287.925C338.768 284.995 322.344 285.048 322.344 285.048L317.349 287.938C317.349 287.938 351.129 307.519 354.965 309.65C357.309 310.982 359.813 316.856 355.218 334.798L356.004 335.251C356.39 335.491 357.789 332.893 359.067 329.444Z"
              fill="white"
            />
            <path
              d="M333.48 297.289L338.941 294.172C338.941 294.172 338.621 275.244 330.656 270.649C322.69 266.054 295.651 269.184 295.651 269.184L290.243 272.301L333.48 297.289Z"
              fill="#F9564F"
            />
            <path
              d="M315.764 274.978C313.167 276.483 313.167 278.907 315.764 280.399C317.22 281.141 318.832 281.527 320.466 281.527C322.1 281.527 323.711 281.141 325.168 280.399C327.752 278.907 327.752 276.47 325.168 274.978C323.71 274.243 322.099 273.86 320.466 273.86C318.833 273.86 317.222 274.243 315.764 274.978Z"
              fill="#F0F0F0"
            />
            <path
              d="M324.076 284.022C322.251 285.088 322.251 286.806 324.076 287.858C325.106 288.386 326.248 288.661 327.406 288.661C328.563 288.661 329.705 288.386 330.736 287.858C332.574 286.806 332.574 285.088 330.736 284.022C329.703 283.501 328.562 283.23 327.406 283.23C326.249 283.23 325.108 283.501 324.076 284.022Z"
              fill="#F0F0F0"
            />
            <path
              d="M303.15 272.567C301.312 273.619 301.312 275.338 303.15 276.403C304.183 276.924 305.323 277.196 306.48 277.196C307.637 277.196 308.777 276.924 309.81 276.403C311.648 275.338 311.648 273.619 309.81 272.567C308.779 272.04 307.638 271.765 306.48 271.765C305.322 271.765 304.181 272.04 303.15 272.567Z"
              fill="#F0F0F0"
            />
            <path
              d="M334.332 291.801C335.398 290.882 336.463 291.255 336.73 292.64C336.828 293.399 336.746 294.171 336.492 294.893C336.237 295.615 335.817 296.267 335.264 296.796C335.095 297.023 334.857 297.19 334.586 297.272C334.315 297.355 334.025 297.349 333.758 297.255C333.491 297.162 333.26 296.985 333.1 296.752C332.94 296.518 332.858 296.24 332.867 295.957C332.764 295.198 332.844 294.425 333.098 293.702C333.353 292.98 333.776 292.328 334.332 291.801Z"
              fill="#F9564F"
            />
            <path
              d="M346.76 297.689L335.89 291.415L333.519 297.156L344.402 303.43L346.76 297.689Z"
              fill="#F9564F"
            />
            <path
              d="M345.081 298.048C345.251 297.822 345.488 297.655 345.759 297.572C346.03 297.49 346.32 297.496 346.587 297.589C346.855 297.683 347.085 297.859 347.245 298.093C347.406 298.326 347.487 298.604 347.479 298.887C347.58 299.647 347.5 300.419 347.246 301.141C346.991 301.864 346.569 302.516 346.014 303.043C344.948 303.962 343.882 303.576 343.616 302.204C343.517 301.445 343.598 300.673 343.852 299.951C344.107 299.229 344.528 298.577 345.081 298.048Z"
              fill="#F9564F"
            />
            <path
              d="M345.081 298.048C345.251 297.822 345.488 297.655 345.759 297.572C346.03 297.49 346.32 297.496 346.587 297.589C346.855 297.683 347.085 297.859 347.245 298.093C347.406 298.326 347.487 298.604 347.479 298.887C347.58 299.647 347.5 300.419 347.246 301.141C346.991 301.864 346.569 302.516 346.014 303.043C344.948 303.962 343.882 303.576 343.616 302.204C343.517 301.445 343.598 300.673 343.852 299.951C344.107 299.229 344.528 298.577 345.081 298.048Z"
              fill="black"
            />
            <path
              d="M252.321 390.276C252.321 390.542 252.321 390.782 252.321 391.049C252.321 391.581 252.321 392.127 252.321 392.674C250.163 391.755 247.352 392.061 244.329 393.846C237.549 397.762 232.048 407.286 232.048 415.158C232.048 418.807 233.247 421.445 235.218 422.817C234.664 423.21 234.091 423.575 233.5 423.909L232.874 424.229L230.995 431.302L220.126 425.241C216.69 423.256 214.572 419.021 214.572 412.973C214.572 400.892 223.043 386.213 233.5 380.166C238.668 377.182 243.343 376.876 246.82 378.834L257.476 384.802L257.702 384.935L252.321 390.276Z"
              fill="#455A64"
            />
            <path
              d="M219.9 369.137L211.788 397.256L228.025 406.633L236.43 378.688L219.9 369.137Z"
              fill="#F9564F"
            />
            <path
              opacity="0.2"
              d="M219.9 369.137L211.788 397.256L228.025 406.633L236.43 378.688L219.9 369.137Z"
              fill="black"
            />
            <path
              d="M219.9 369.137C219.9 369.137 229.104 376.956 236.43 378.688C246.047 381.019 261.338 381.272 266.76 381.645C275.045 382.217 281.305 382.204 284.235 381.152C288.032 379.82 298.235 373.892 301.059 372.267C306.467 369.15 308.771 356.883 293.866 353.526C283.788 351.438 273.522 350.389 263.23 350.396L219.9 369.137Z"
              fill="#F9564F"
            />
            <path
              d="M311.688 365.541C311.225 366.699 310.911 367.912 310.756 369.151C310.326 370.437 310.226 371.811 310.463 373.147C311.478 374.826 313.076 376.073 314.951 376.65C316.303 376.95 317.701 376.969 319.06 376.706C320.419 376.442 321.709 375.902 322.85 375.118C325.607 373.466 327.685 371.468 331.601 370.349C334.401 369.757 337.037 368.561 339.327 366.846C341.498 365.101 344.402 360.279 340.246 359.161C336.09 358.042 327.059 361.984 318.828 362.344L311.688 365.541Z"
              fill="#37474F"
            />
            <path
              d="M311.688 360.399V366.553C311.94 367.245 312.378 367.853 312.954 368.311C313.53 368.77 314.221 369.06 314.951 369.151C315.62 369.249 316.303 369.175 316.936 368.937C317.934 368.556 318.798 367.892 319.423 367.026C320.048 366.159 320.406 365.129 320.453 364.062L320.692 360.399H311.688Z"
              fill="#FFA8A7"
            />
            <path
              d="M323.41 322.344C323.41 330.003 321.252 363.116 321.252 363.116C321.252 363.116 318.122 367.112 311.315 363.116L309.024 326.114L323.41 322.344Z"
              fill="#37474F"
            />
            <path
              d="M287.712 354.978L309.024 342.697C309.897 342.239 310.629 341.55 311.139 340.706C311.649 339.862 311.919 338.895 311.919 337.908C311.919 336.922 311.649 335.955 311.139 335.111C310.629 334.267 309.897 333.578 309.024 333.12L293.147 323.956C292.253 323.503 291.265 323.267 290.263 323.267C289.261 323.267 288.273 323.503 287.379 323.956L266.067 336.237C265.197 336.698 264.47 337.388 263.963 338.231C263.455 339.075 263.187 340.041 263.187 341.025C263.187 342.01 263.455 342.976 263.963 343.819C264.47 344.663 265.197 345.352 266.067 345.814L281.944 354.978C282.838 355.431 283.826 355.667 284.828 355.667C285.83 355.667 286.818 355.431 287.712 354.978Z"
              fill="#F9564F"
            />
            <path
              d="M287.712 354.978L309.024 342.697C309.897 342.239 310.629 341.55 311.139 340.706C311.649 339.862 311.919 338.895 311.919 337.908C311.919 336.922 311.649 335.955 311.139 335.111C310.629 334.267 309.897 333.578 309.024 333.12L293.147 323.956C292.253 323.503 291.265 323.267 290.263 323.267C289.261 323.267 288.273 323.503 287.379 323.956L266.067 336.237C265.197 336.698 264.47 337.388 263.963 338.231C263.455 339.075 263.187 340.041 263.187 341.025C263.187 342.01 263.455 342.976 263.963 343.819C264.47 344.663 265.197 345.352 266.067 345.814L281.944 354.978C282.838 355.431 283.826 355.667 284.828 355.667C285.83 355.667 286.818 355.431 287.712 354.978Z"
              fill="white"
            />
            <path
              d="M266.067 339.567L281.944 348.731C282.838 349.184 283.826 349.42 284.828 349.42C285.83 349.42 286.818 349.184 287.712 348.731L309.024 336.45C309.372 336.332 309.674 336.108 309.888 335.809C310.102 335.51 310.217 335.152 310.217 334.785C310.217 334.417 310.102 334.059 309.888 333.761C309.674 333.462 309.372 333.238 309.024 333.12L293.147 323.956C292.253 323.503 291.265 323.267 290.263 323.267C289.261 323.267 288.273 323.503 287.379 323.956L266.067 336.237C265.719 336.355 265.417 336.579 265.203 336.878C264.989 337.176 264.874 337.534 264.874 337.902C264.874 338.269 264.989 338.627 265.203 338.926C265.417 339.225 265.719 339.449 266.067 339.567Z"
              fill="#F9564F"
            />
            <path
              d="M279.054 258.048L276.35 269.197L264.735 269.903L267.239 254.452L279.054 258.048Z"
              fill="#FFA8A7"
            />
            <path
              d="M290.376 249.657C290.376 249.657 291.708 254.372 291.162 254.638C290.323 254.766 289.47 254.766 288.631 254.638L290.376 249.657Z"
              fill="#F28F8F"
            />
            <path
              d="M288.152 234.605C290.016 236.803 291.721 240.413 290.403 249.257C288.964 258.928 287.179 260.046 285.741 260.979C283.863 262.204 276.35 261.552 274.232 260.006C271.688 258.155 267.759 252.281 266.826 246.487C265.734 239.68 268.012 232.128 273.02 230.836C280.066 229.011 286.566 232.74 288.152 234.605Z"
              fill="#FFA8A7"
            />
            <path
              d="M266.067 257.582C267.865 259.447 271.555 259.953 273.873 260.379C276.19 260.806 283.316 261.272 285.421 256.197C287.526 251.122 286.087 247.472 288.671 246.247C291.255 245.021 293.839 244.222 294.519 243.583C295.198 242.943 295.211 234.592 288.271 230.263C281.332 225.934 270.702 224.935 263.709 233.713C258.408 240.493 260.579 251.855 266.067 257.582Z"
              fill="#455A64"
            />
            <path
              d="M273.06 260.446C274.858 260.606 280.546 259.713 282.264 257.369C283.982 255.025 284.675 250.829 284.928 248.631C284.951 247.766 285.269 246.934 285.828 246.273C286.387 245.612 287.155 245.161 288.005 244.995C289.723 244.449 293.52 242.584 293.52 242.584V241.545C294.744 241.468 295.972 241.468 297.196 241.545C297.995 241.691 297.555 242.877 295.531 243.903C293.506 244.928 287.952 246.913 287.099 247.592C286.247 248.272 285.847 251.135 285.168 254.186C284.489 257.236 282.384 261.791 273.06 260.446Z"
              fill="#37474F"
            />
            <path
              d="M289.044 273.06L295.704 269.237C296.343 267.306 295.318 266.333 293.506 266.453C291.695 266.573 292.254 264.815 291.149 264.322C289.697 263.656 288.871 264.029 288.218 263.723C287.565 263.416 287.286 262.644 286.433 262.551C282.624 262.191 280.026 267.625 280.026 267.625L289.044 273.06Z"
              fill="#F28F8F"
            />
            <path
              d="M243.836 321.971C243.836 321.971 273.26 307.386 278.388 305.028C283.516 302.67 291.561 299.247 295.837 299.247C297.508 299.385 299.073 300.121 300.245 301.32C301.417 302.519 302.117 304.1 302.217 305.774C302.273 308.343 302.126 310.913 301.778 313.46C293.694 316.112 285.433 318.19 277.056 319.68C264.815 321.811 243.836 321.971 243.836 321.971Z"
              fill="#37474F"
            />
            <path
              d="M247.033 313.54C247.033 319.587 246.46 325.874 248.977 330.296C251.495 334.718 265.135 344.948 277.975 342.804C286.367 341.392 311.275 329.923 311.275 329.923C311.275 329.923 323.356 325.488 323.41 322.331C323.49 317.682 323.17 311.129 312.634 311.408C303.03 311.661 274.698 317.575 274.698 317.575L247.033 313.54Z"
              fill="#455A64"
            />
            <path
              d="M255.251 265.627C259.807 260.872 262.884 260.473 265.068 261.059C270.088 262.496 274.949 264.441 279.573 266.866C279.573 266.866 277.815 283.889 286.14 288.791V315.324C286.14 315.324 285.887 318.201 282.264 321.065C279.067 323.583 271.835 326.127 263.203 325.408C252.947 324.555 247.033 313.539 247.033 313.539C247.033 313.539 246.766 291.841 248.218 283.223C249.923 273.167 253.679 267.279 255.251 265.627Z"
              fill="#455A64"
            />
            <path
              d="M286.14 290.083C286.14 290.083 281.105 286.087 279.573 280.892C279.573 280.892 280.173 289.044 286.14 293.173V290.083Z"
              fill="#37474F"
            />
            <path
              d="M332.747 302.604C335.138 302.702 337.491 301.973 339.407 300.539C339.407 300.539 341.725 296.037 344.575 296.423C344.575 296.423 345.081 294.505 343.909 293.879C342.737 293.253 342.231 293.426 341.751 292.76C341.272 292.094 341.218 290.855 339.087 290.855C338.208 290.855 338.328 290.229 336.197 289.976C334.066 289.723 331.961 294.638 330.403 294.638L332.747 302.604Z"
              fill="#FFA8A7"
            />
            <path
              d="M279.573 266.866C286.886 267.998 289.537 270.17 292.201 272.634C294.865 275.098 311.169 291.455 311.169 291.455L330.909 294.292C331.946 295.132 332.707 296.264 333.093 297.542C333.892 299.86 333.173 302.391 332.414 302.99C332.414 302.99 312.834 304.162 308.984 303.43C305.135 302.697 286.074 290.043 286.074 290.043C284.252 288.669 282.724 286.944 281.58 284.97C280.436 282.995 279.699 280.812 279.414 278.548C278.175 270.516 279.573 266.866 279.573 266.866Z"
              fill="#455A64"
            />
            <path
              d="M262.018 337.222L231.768 374.145C231.432 374.188 231.094 374.21 230.756 374.212C229.556 374.231 228.371 373.952 227.306 373.4L201.758 358.641L200.026 357.642C199.081 357.096 198.295 354.858 198.295 352.647V346.427C198.294 340.037 199.975 333.759 203.169 328.225C206.362 322.69 210.957 318.094 216.49 314.898L246.993 297.289L279.454 316.03L262.018 337.222Z"
              fill="#F9564F"
            />
            <g opacity="0.1">
              <path
                opacity="0.1"
                d="M262.018 337.222L231.768 374.145C231.432 374.188 231.094 374.21 230.756 374.212C229.556 374.231 228.371 373.952 227.306 373.4L201.758 358.641L200.026 357.642C199.081 357.096 198.295 354.858 198.295 352.647V346.427C198.294 340.037 199.975 333.759 203.169 328.225C206.362 322.69 210.957 318.094 216.49 314.898L246.993 297.289L279.454 316.03L262.018 337.222Z"
                fill="black"
              />
            </g>
            <path
              d="M251.588 349.956L279.414 316.044L246.953 297.302L216.463 314.898C212.519 317.181 209.04 320.186 206.207 323.756L251.588 349.956Z"
              fill="#F9564F"
            />
            <path
              d="M279.414 343.27C279.414 345.481 278.641 347.719 277.682 348.265L275.95 349.264L234.179 373.386C233.419 373.796 232.586 374.054 231.728 374.145C231.392 374.188 231.054 374.21 230.716 374.212V365.168C230.715 358.776 232.397 352.497 235.593 346.963C238.79 341.428 243.388 336.833 248.924 333.639L252.374 331.655L279.414 316.03V343.27Z"
              fill="#F9564F"
            />
            <g opacity="0.2">
              <path
                opacity="0.2"
                d="M279.414 343.27C279.414 345.481 278.641 347.719 277.682 348.265L275.95 349.264L234.179 373.386C233.419 373.796 232.586 374.054 231.728 374.145C231.392 374.188 231.054 374.21 230.716 374.212V365.168C230.715 358.776 232.397 352.497 235.593 346.963C238.79 341.428 243.388 336.833 248.924 333.639L252.374 331.655L279.414 316.03V343.27Z"
                fill="black"
              />
            </g>
            <path
              d="M288.378 388.957L304.722 388.904L328.112 375.398L305.201 391.954L287.952 392.194L288.378 388.957Z"
              fill="#E0E0E0"
            />
            <path
              d="M248.698 412.214C248.698 412.214 278.162 401.105 280.666 399.8C283.605 397.999 286.393 395.963 289.004 393.713C289.537 393.008 289.787 392.129 289.706 391.25C289.624 390.37 289.217 389.552 288.564 388.957C288.564 388.957 276.576 388.411 273.5 389.357C271.781 389.876 244.049 398.774 244.049 398.774L248.698 412.214Z"
              fill="#E0E0E0"
            />
            <path
              d="M247.379 399.8C244.941 397.709 242.491 398.574 241.891 401.718C241.662 403.452 241.846 405.216 242.427 406.866C243.008 408.517 243.97 410.007 245.235 411.215C247.672 413.306 250.123 412.454 250.722 409.297C250.95 407.563 250.766 405.799 250.185 404.149C249.605 402.499 248.643 401.009 247.379 399.8Z"
              fill="#455A64"
            />
          </svg>