 <svg
              width="45"
              height="45"
              viewBox="0 0 45 45"
              fill="none"
              xmlns="http://www.w3.org/2000/svg"
            >
              <path
                d="M20.7188 28.125L15.4688 22.875L18.0937 20.25L20.7188 22.875L27.375 16.2187L30 18.8438L20.7188 28.125ZM13.125 43.125C12.0938 43.125 11.2112 42.7581 10.4775 42.0244C9.7425 41.2894 9.375 40.4062 9.375 39.375V5.625C9.375 4.59375 9.7425 3.71063 10.4775 2.97563C11.2112 2.24187 12.0938 1.875 13.125 1.875H31.875C32.9062 1.875 33.7894 2.24187 34.5244 2.97563C35.2581 3.71063 35.625 4.59375 35.625 5.625V39.375C35.625 40.4062 35.2581 41.2894 34.5244 42.0244C33.7894 42.7581 32.9062 43.125 31.875 43.125H13.125ZM13.125 33.75H31.875V11.25H13.125V33.75ZM13.125 37.5V39.375H31.875V37.5H13.125ZM13.125 7.5H31.875V5.625H13.125V7.5ZM13.125 5.625V7.5V5.625ZM13.125 39.375V37.5V39.375Z"
                fill="black"
              />
            </svg>