<svg
              width="45"
              height="45"
              viewBox="0 0 45 45"
              fill="none"
              xmlns="http://www.w3.org/2000/svg"
            >
              <path
                d="M20.8125 7.9695C18.1078 8.27619 15.5424 9.33209 13.4055 11.0182L15.255 12.87C15.5531 13.1899 15.7154 13.613 15.7076 14.0502C15.6999 14.4874 15.5228 14.9045 15.2136 15.2136C14.9045 15.5228 14.4874 15.6999 14.0502 15.7076C13.613 15.7154 13.1899 15.5531 12.87 15.255L11.0115 13.3988C9.43195 15.38 8.40423 17.7436 8.0325 20.25H11.8125C12.2601 20.25 12.6893 20.4278 13.0057 20.7443C13.3222 21.0607 13.5 21.4899 13.5 21.9375C13.5 22.3851 13.3222 22.8143 13.0057 23.1307C12.6893 23.4472 12.2601 23.625 11.8125 23.625H7.93125C8.28156 27.236 9.93195 30.5968 12.5753 33.0818C12.8941 33.3897 13.0789 33.8107 13.0899 34.2538C13.1008 34.6969 12.937 35.1266 12.6338 35.4499C12.3305 35.7732 11.9123 35.9642 11.4694 35.9817C11.0265 35.9992 10.5945 35.8417 10.2668 35.5432C6.80175 32.2965 4.5 27.5085 4.5 22.3717C4.5 12.4897 12.5707 4.5 22.5 4.5C32.4293 4.5 40.5 12.4875 40.5 22.3717C40.4956 24.8379 39.9894 27.2774 39.0123 29.5418C38.0353 31.8062 36.6077 33.8481 34.8165 35.5432C34.4888 35.8417 34.0568 35.9992 33.6139 35.9817C33.171 35.9642 32.7527 35.7732 32.4495 35.4499C32.1463 35.1266 31.9824 34.6969 31.9934 34.2538C32.0043 33.8107 32.1892 33.3897 32.508 33.0818C35.1329 30.5926 36.756 27.2288 37.071 23.625H33.1875C32.7399 23.625 32.3107 23.4472 31.9943 23.1307C31.6778 22.8143 31.5 22.3851 31.5 21.9375C31.5 21.4899 31.6778 21.0607 31.9943 20.7443C32.3107 20.4278 32.7399 20.25 33.1875 20.25H36.9675C36.0135 13.8015 30.7733 8.71875 24.1875 7.9695V10.6875C24.1875 11.1351 24.0097 11.5643 23.6932 11.8807C23.3768 12.1972 22.9476 12.375 22.5 12.375C22.0524 12.375 21.6232 12.1972 21.3068 11.8807C20.9903 11.5643 20.8125 11.1351 20.8125 10.6875V7.9695ZM30.2603 13.0658C30.4647 12.9034 30.7193 12.8172 30.9803 12.8219C31.2414 12.8266 31.4927 12.922 31.6911 13.0917C31.8895 13.2614 32.0228 13.4949 32.068 13.752C32.1131 14.0092 32.0675 14.2741 31.9387 14.5013L31.6912 14.9422C30.7864 16.54 29.8759 18.1345 28.9598 19.7257C28.2273 20.9991 27.4848 22.2667 26.7322 23.5282C26.4502 24.0029 26.1622 24.4739 25.8682 24.9412C25.6432 25.2945 25.4228 25.6298 25.2607 25.8188C24.6795 26.4996 23.8516 26.9217 22.9592 26.9922C22.0668 27.0627 21.1829 26.7757 20.502 26.1945C19.8211 25.6133 19.399 24.7854 19.3286 23.8929C19.2581 23.0005 19.545 22.1166 20.1262 21.4358C20.2882 21.2468 20.583 20.9745 20.898 20.6978C21.2355 20.3985 21.6697 20.0318 22.158 19.62C23.139 18.801 24.3675 17.7975 25.5645 16.83C26.9922 15.6751 28.4247 14.5261 29.862 13.383L30.2603 13.068V13.0658Z"
                fill="black"
              />
            </svg>