<svg
            viewBox="0 0 600 530"
            fill="none"
            xmlns="http://www.w3.org/2000/svg"
          >
            <path d="M660 482.589H0V482.904H660V482.589Z" fill="#EBEBEB" />
            <path
              d="M228.65 490.64H198.053V490.956H228.65V490.64Z"
              fill="#EBEBEB"
            />
            <path
              d="M605.576 497.405H530.772V497.72H605.576V497.405Z"
              fill="#EBEBEB"
            />
            <path
              d="M131.195 497.405H56.3904V497.72H131.195V497.405Z"
              fill="#EBEBEB"
            />
            <path
              d="M312.84 426.304H57.9612C55.9645 426.3 54.0508 425.54 52.6401 424.189C51.2295 422.838 50.4372 421.007 50.4372 419.098V76.553C50.4546 74.6549 51.2545 72.8401 52.6633 71.5027C54.0721 70.1653 55.9759 69.4133 57.9612 69.41H312.84C314.839 69.41 316.756 70.1692 318.17 71.5206C319.583 72.872 320.377 74.7049 320.377 76.6161V76.6161V419.098C320.377 421.009 319.583 422.842 318.17 424.193C316.756 425.544 314.839 426.304 312.84 426.304V426.304ZM57.9612 69.6624C56.052 69.6658 54.2222 70.3932 52.8735 71.6851C51.5247 72.9769 50.7672 74.7277 50.7672 76.553V419.098C50.7672 420.923 51.5247 422.674 52.8735 423.965C54.2222 425.257 56.052 425.985 57.9612 425.988H312.84C314.749 425.981 316.578 425.253 317.929 423.963C319.279 422.672 320.04 420.923 320.047 419.098V76.553C320.04 74.7275 319.279 72.9788 317.929 71.688C316.578 70.3972 314.749 69.6691 312.84 69.6624H57.9612Z"
              fill="#EBEBEB"
            />
            <path
              d="M598.369 426.304H343.477C341.48 426.297 339.567 425.536 338.155 424.186C336.743 422.836 335.947 421.007 335.94 419.098V76.553C335.961 74.6538 336.764 72.839 338.175 71.5019C339.585 70.1648 341.491 69.4133 343.477 69.41H598.369C600.352 69.4166 602.253 70.1701 603.659 71.5071C605.065 72.8442 605.863 74.6571 605.88 76.553V419.098C605.882 420.042 605.689 420.978 605.312 421.851C604.936 422.725 604.383 423.519 603.686 424.188C602.988 424.857 602.16 425.388 601.248 425.751C600.335 426.114 599.357 426.302 598.369 426.304V426.304ZM343.477 69.6624C341.568 69.6691 339.739 70.3972 338.389 71.688C337.039 72.9788 336.277 74.7275 336.27 76.553V419.098C336.277 420.923 337.039 422.672 338.389 423.963C339.739 425.253 341.568 425.981 343.477 425.988H598.369C600.279 425.981 602.108 425.253 603.458 423.963C604.808 422.672 605.569 420.923 605.576 419.098V76.553C605.569 74.7275 604.808 72.9788 603.458 71.688C602.108 70.3972 600.279 69.6691 598.369 69.6624H343.477Z"
              fill="#EBEBEB"
            />
            <path
              d="M130.284 164.577H240.24C241.346 164.576 242.442 164.783 243.465 165.187C244.487 165.591 245.416 166.184 246.199 166.932C246.981 167.68 247.601 168.568 248.024 169.546C248.447 170.523 248.663 171.571 248.662 172.629V482.299H121.942V172.616C121.945 170.496 122.823 168.463 124.385 166.958C125.947 165.453 128.066 164.597 130.284 164.577V164.577Z"
              fill="#F7FFF7"
            />
            <path
              d="M148.738 183.343H132.396V218.124H148.738V183.343Z"
              fill="#EBEBEB"
            />
            <path
              d="M238.102 183.343H221.76V218.124H238.102V183.343Z"
              fill="#EBEBEB"
            />
            <path
              d="M178.517 183.343H162.175V218.124H178.517V183.343Z"
              fill="#EBEBEB"
            />
            <path
              d="M208.309 183.343H191.968V218.124H208.309V183.343Z"
              fill="#EBEBEB"
            />
            <path
              d="M148.738 238.253H132.396V273.034H148.738V238.253Z"
              fill="#EBEBEB"
            />
            <path
              d="M238.102 238.253H221.76V273.034H238.102V238.253Z"
              fill="#EBEBEB"
            />
            <path
              d="M178.517 238.253H162.175V273.034H178.517V238.253Z"
              fill="#EBEBEB"
            />
            <path
              d="M208.309 238.253H191.968V273.034H208.309V238.253Z"
              fill="#EBEBEB"
            />
            <path
              d="M148.738 293.15H132.396V327.931H148.738V293.15Z"
              fill="#EBEBEB"
            />
            <path
              d="M238.102 293.15H221.76V327.931H238.102V293.15Z"
              fill="#EBEBEB"
            />
            <path
              d="M178.517 293.15H162.175V327.931H178.517V293.15Z"
              fill="#EBEBEB"
            />
            <path
              d="M208.309 293.15H191.968V327.931H208.309V293.15Z"
              fill="#EBEBEB"
            />
            <path
              d="M148.738 348.06H132.396V382.84H148.738V348.06Z"
              fill="#EBEBEB"
            />
            <path
              d="M238.102 348.06H221.76V382.84H238.102V348.06Z"
              fill="#EBEBEB"
            />
            <path
              d="M178.517 348.06H162.175V382.84H178.517V348.06Z"
              fill="#EBEBEB"
            />
            <path
              d="M208.309 348.06H191.968V382.84H208.309V348.06Z"
              fill="#EBEBEB"
            />
            <path
              d="M148.738 402.957H132.396V437.737H148.738V402.957Z"
              fill="#EBEBEB"
            />
            <path
              d="M238.102 402.957H221.76V437.737H238.102V402.957Z"
              fill="#EBEBEB"
            />
            <path
              d="M178.517 402.957H162.175V437.737H178.517V402.957Z"
              fill="#EBEBEB"
            />
            <path
              d="M208.309 402.957H191.968V437.737H208.309V402.957Z"
              fill="#EBEBEB"
            />
            <path
              d="M520.001 193.439H598.726C600.541 193.443 602.282 194.134 603.566 195.361C604.85 196.589 605.573 198.253 605.576 199.989V482.299H513.176V200.002C513.176 198.268 513.894 196.604 515.173 195.375C516.451 194.145 518.187 193.449 520.001 193.439V193.439Z"
              fill="#F7FFF7"
            />
            <path
              d="M539.774 210.514H524.924V242.127H539.774V210.514Z"
              fill="#EBEBEB"
            />
            <path
              d="M566.861 210.514H552.011V242.127H566.861V210.514Z"
              fill="#EBEBEB"
            />
            <path
              d="M593.934 210.514H579.084V242.127H593.934V210.514Z"
              fill="#EBEBEB"
            />
            <path
              d="M539.774 260.426H524.924V292.039H539.774V260.426Z"
              fill="#EBEBEB"
            />
            <path
              d="M566.861 260.426H552.011V292.039H566.861V260.426Z"
              fill="#EBEBEB"
            />
            <path
              d="M593.934 260.426H579.084V292.039H593.934V260.426Z"
              fill="#EBEBEB"
            />
            <path
              d="M539.774 310.351H524.924V341.964H539.774V310.351Z"
              fill="#EBEBEB"
            />
            <path
              d="M566.861 310.351H552.011V341.964H566.861V310.351Z"
              fill="#EBEBEB"
            />
            <path
              d="M593.934 310.351H579.084V341.964H593.934V310.351Z"
              fill="#EBEBEB"
            />
            <path
              d="M539.774 360.25H524.924V391.864H539.774V360.25Z"
              fill="#EBEBEB"
            />
            <path
              d="M566.861 360.25H552.011V391.864H566.861V360.25Z"
              fill="#EBEBEB"
            />
            <path
              d="M593.934 360.25H579.084V391.864H593.934V360.25Z"
              fill="#EBEBEB"
            />
            <path
              d="M539.774 410.175H524.924V441.788H539.774V410.175Z"
              fill="#EBEBEB"
            />
            <path
              d="M566.861 410.175H552.011V441.788H566.861V410.175Z"
              fill="#EBEBEB"
            />
            <path
              d="M593.934 410.175H579.084V441.788H593.934V410.175Z"
              fill="#EBEBEB"
            />
            <path
              d="M339.649 112.646H467.531C470.128 112.646 472.62 113.633 474.456 115.389C476.293 117.145 477.325 119.527 477.325 122.01V482.299H329.868V122.01C329.868 119.529 330.898 117.149 332.732 115.393C334.566 113.638 337.054 112.65 339.649 112.646Z"
              fill="#F7FFF7"
            />
            <path
              d="M361.112 134.491H342.104V174.951H361.112V134.491Z"
              fill="#EBEBEB"
            />
            <path
              d="M465.076 134.491H446.068V174.951H465.076V134.491Z"
              fill="#EBEBEB"
            />
            <path
              d="M395.762 134.491H376.754V174.951H395.762V134.491Z"
              fill="#EBEBEB"
            />
            <path
              d="M430.426 134.491H411.418V174.951H430.426V134.491Z"
              fill="#EBEBEB"
            />
            <path
              d="M361.112 198.374H342.104V238.833H361.112V198.374Z"
              fill="#EBEBEB"
            />
            <path
              d="M465.076 198.374H446.068V238.833H465.076V198.374Z"
              fill="#EBEBEB"
            />
            <path
              d="M395.762 198.374H376.754V238.833H395.762V198.374Z"
              fill="#EBEBEB"
            />
            <path
              d="M430.426 198.374H411.418V238.833H430.426V198.374Z"
              fill="#EBEBEB"
            />
            <path
              d="M361.112 262.256H342.104V302.716H361.112V262.256Z"
              fill="#EBEBEB"
            />
            <path
              d="M465.076 262.256H446.068V302.716H465.076V262.256Z"
              fill="#EBEBEB"
            />
            <path
              d="M395.762 262.256H376.754V302.716H395.762V262.256Z"
              fill="#EBEBEB"
            />
            <path
              d="M430.426 262.256H411.418V302.716H430.426V262.256Z"
              fill="#EBEBEB"
            />
            <path
              d="M361.112 326.126H342.104V366.586H361.112V326.126Z"
              fill="#EBEBEB"
            />
            <path
              d="M465.076 326.126H446.068V366.586H465.076V326.126Z"
              fill="#EBEBEB"
            />
            <path
              d="M395.762 326.126H376.754V366.586H395.762V326.126Z"
              fill="#EBEBEB"
            />
            <path
              d="M430.426 326.126H411.418V366.586H430.426V326.126Z"
              fill="#EBEBEB"
            />
            <path
              d="M361.112 389.996H342.104V430.456H361.112V389.996Z"
              fill="#EBEBEB"
            />
            <path
              d="M465.076 389.996H446.068V430.456H465.076V389.996Z"
              fill="#EBEBEB"
            />
            <path
              d="M395.762 389.996H376.754V430.456H395.762V389.996Z"
              fill="#EBEBEB"
            />
            <path
              d="M430.426 389.996H411.418V430.456H430.426V389.996Z"
              fill="#EBEBEB"
            />
            <path
              d="M329.855 245.043H248.622V482.311H329.855V245.043Z"
              fill="#E6E6E6"
            />
            <path
              d="M513.229 270.447H477.338V482.299H513.229V270.447Z"
              fill="#E6E6E6"
            />
            <path
              d="M121.862 482.299H50.7672V383.244L121.862 360.25V482.299Z"
              fill="#E6E6E6"
            />
            <path
              d="M330 539.581C471.349 539.581 585.935 530.603 585.935 519.528C585.935 508.452 471.349 499.474 330 499.474C188.651 499.474 74.0652 508.452 74.0652 519.528C74.0652 530.603 188.651 539.581 330 539.581Z"
              fill="#F5F5F5"
            />
            <path
              d="M392.938 440.337H370.498C358.816 440.337 349.378 456.528 349.378 476.506C349.378 496.483 358.842 512.662 370.498 512.662H392.938C404.62 512.662 414.058 496.471 414.058 476.506C414.058 456.541 404.62 440.337 392.938 440.337Z"
              fill="#263238"
            />
            <path
              opacity="0.05"
              d="M419.338 440.337H396.898C385.216 440.337 375.778 456.528 375.778 476.506C375.778 496.483 385.242 512.662 396.898 512.662H419.338C431.02 512.662 440.458 496.471 440.458 476.506C440.458 456.541 431.02 440.337 419.338 440.337Z"
              fill="white"
            />
            <path
              d="M574.715 448.086L181.764 447.821V207.851H574.715V448.086Z"
              fill="#F3C677"
            />
            <path
              opacity="0.3"
              d="M574.715 207.851H308.392V448.073H574.715V207.851Z"
              fill="#263238"
            />
            <path
              opacity="0.2"
              d="M308.392 207.851H181.764V452.818H308.392V207.851Z"
              fill="white"
            />
            <path
              opacity="0.1"
              d="M182.714 219.007H574.715"
              stroke="white"
              stroke-width="2"
              stroke-linecap="round"
              stroke-linejoin="round"
            />
            <path
              opacity="0.1"
              d="M182.714 229.394H574.715"
              stroke="white"
              stroke-width="2"
              stroke-linecap="round"
              stroke-linejoin="round"
            />
            <path
              opacity="0.1"
              d="M182.714 239.767H574.715"
              stroke="white"
              stroke-width="2"
              stroke-linecap="round"
              stroke-linejoin="round"
            />
            <path
              opacity="0.1"
              d="M182.714 250.141H574.715"
              stroke="white"
              stroke-width="2"
              stroke-linecap="round"
              stroke-linejoin="round"
            />
            <path
              opacity="0.1"
              d="M182.714 260.527H574.715"
              stroke="white"
              stroke-width="2"
              stroke-linecap="round"
              stroke-linejoin="round"
            />
            <path
              opacity="0.1"
              d="M182.714 270.901H574.715"
              stroke="white"
              stroke-width="2"
              stroke-linecap="round"
              stroke-linejoin="round"
            />
            <path
              opacity="0.1"
              d="M182.714 281.275H574.715"
              stroke="white"
              stroke-width="2"
              stroke-linecap="round"
              stroke-linejoin="round"
            />
            <path
              opacity="0.1"
              d="M182.714 291.648H574.715"
              stroke="white"
              stroke-width="2"
              stroke-linecap="round"
              stroke-linejoin="round"
            />
            <path
              opacity="0.1"
              d="M182.714 302.034H574.715"
              stroke="white"
              stroke-width="2"
              stroke-linecap="round"
              stroke-linejoin="round"
            />
            <path
              opacity="0.1"
              d="M182.714 312.408H574.715"
              stroke="white"
              stroke-width="2"
              stroke-linecap="round"
              stroke-linejoin="round"
            />
            <path
              opacity="0.1"
              d="M182.714 322.782H574.715"
              stroke="white"
              stroke-width="2"
              stroke-linecap="round"
              stroke-linejoin="round"
            />
            <path
              opacity="0.1"
              d="M182.714 333.168H574.715"
              stroke="white"
              stroke-width="2"
              stroke-linecap="round"
              stroke-linejoin="round"
            />
            <path
              opacity="0.1"
              d="M182.714 343.542H574.715"
              stroke="white"
              stroke-width="2"
              stroke-linecap="round"
              stroke-linejoin="round"
            />
            <path
              opacity="0.1"
              d="M182.714 353.915H574.715"
              stroke="white"
              stroke-width="2"
              stroke-linecap="round"
              stroke-linejoin="round"
            />
            <path
              opacity="0.1"
              d="M182.714 364.289H574.715"
              stroke="white"
              stroke-width="2"
              stroke-linecap="round"
              stroke-linejoin="round"
            />
            <path
              opacity="0.1"
              d="M182.714 374.675H574.715"
              stroke="white"
              stroke-width="2"
              stroke-linecap="round"
              stroke-linejoin="round"
            />
            <path
              opacity="0.1"
              d="M182.714 385.049H574.715"
              stroke="white"
              stroke-width="2"
              stroke-linecap="round"
              stroke-linejoin="round"
            />
            <path
              opacity="0.1"
              d="M182.714 395.422H574.715"
              stroke="white"
              stroke-width="2"
              stroke-linecap="round"
              stroke-linejoin="round"
            />
            <path
              opacity="0.1"
              d="M182.714 405.809H574.715"
              stroke="white"
              stroke-width="2"
              stroke-linecap="round"
              stroke-linejoin="round"
            />
            <path
              opacity="0.1"
              d="M182.714 416.182H574.715"
              stroke="white"
              stroke-width="2"
              stroke-linecap="round"
              stroke-linejoin="round"
            />
            <path
              opacity="0.1"
              d="M182.714 426.556H574.715"
              stroke="white"
              stroke-width="2"
              stroke-linecap="round"
              stroke-linejoin="round"
            />
            <path
              opacity="0.1"
              d="M182.714 436.942H574.715"
              stroke="white"
              stroke-width="2"
              stroke-linecap="round"
              stroke-linejoin="round"
            />
            <path
              d="M109.652 445.057H88.8888C78.0648 445.057 69.3 460.049 69.3 478.55C69.3 497.051 78.0648 512.031 88.8888 512.031H109.652C120.476 512.031 129.241 497.039 129.241 478.55C129.241 460.062 120.476 445.057 109.652 445.057Z"
              fill="#263238"
            />
            <path
              opacity="0.05"
              d="M136.066 445.057H115.289C104.465 445.057 95.7 460.049 95.7 478.55C95.7 497.051 104.465 512.031 115.289 512.031H136.066C146.876 512.031 155.654 497.039 155.654 478.55C155.654 460.062 146.876 445.057 136.066 445.057Z"
              fill="white"
            />
            <path
              d="M98.1024 379.647H88.2816C86.3544 379.711 84.7704 377.742 84.7308 375.243C84.7045 374.983 84.7045 374.721 84.7308 374.461L87.3708 346.103C87.7008 343.188 89.5884 341.056 91.8588 340.917H101.772C103.686 340.917 105.27 342.848 105.31 345.346C105.31 345.599 105.31 345.851 105.31 346.103L102.67 374.461C102.274 377.338 100.32 379.572 98.1024 379.647Z"
              fill="#263238"
            />
            <path
              d="M107.923 285.982L88.9812 383.648L295.205 460.882L293.766 268.402L248.411 267.14H124.172C116.701 267.077 110.114 274.75 107.923 285.982Z"
              fill="#F3C677"
            />
            <path
              d="M261.36 301.694C253.664 301.366 246.761 307.398 244.504 316.396L228.901 378.89H198.871L197.234 461.337H296.01"
              fill="#F3C677"
            />
            <path
              d="M110.88 373.64C107.857 373.64 105.415 369.93 105.415 365.362C105.414 364.565 105.493 363.771 105.653 362.989L116.992 305.644C117.942 300.886 120.846 297.63 124.133 297.643H232.61C233.785 297.643 234.749 299.081 234.749 300.873C234.751 301.191 234.72 301.508 234.656 301.82C232.28 313.632 224.558 352.767 221.602 367.734C220.915 371.243 218.777 373.64 216.322 373.64H110.88Z"
              fill="#263238"
            />
            <path
              d="M210.698 399.057C210.696 400.062 210.621 401.066 210.474 402.061L209.906 405.758L209.576 407.941L207.148 423.893L203.188 449.827L202.092 457.033H48.5892V449.827L48.6948 423.893L48.84 408.383V402.073C47.52 393.744 51.7308 385.667 58.146 383.989C58.8986 383.792 59.6758 383.695 60.456 383.698H198.871C205.405 383.648 210.698 390.564 210.698 399.057Z"
              fill="#F3C677"
            />
            <path
              d="M288.724 305.404V366.876C288.724 370.599 286.73 373.628 284.262 373.64H246.748C244.279 373.64 242.286 370.612 242.286 366.876C242.285 366.267 242.338 365.659 242.444 365.059L254.008 302.211C254.562 299.195 256.41 297.163 258.469 297.277L284.42 298.64C286.823 298.778 288.724 301.769 288.724 305.404Z"
              fill="#263238"
            />
            <path
              opacity="0.1"
              d="M174.161 297.643H153.437L129.637 373.64H150.374L174.161 297.643Z"
              fill="white"
            />
            <path
              opacity="0.1"
              d="M190.291 297.643H180.391L156.605 373.64H166.492L190.291 297.643Z"
              fill="white"
            />
            <path
              d="M250.47 423.893V449.827H48.6156L48.7212 423.893H250.47Z"
              fill="black"
            />
            <path
              d="M222.354 423.893H203.689L170.122 442.747V449.827H250.47V423.893H222.354Z"
              fill="white"
            />
            <path
              d="M83.4108 442.747V449.827H48.6156L48.7212 423.893H49.8564L83.4108 442.747Z"
              fill="white"
            />
            <path
              opacity="0.3"
              d="M295.297 461.337L293.766 268.402L266.046 267.14C259.129 266.812 251.143 274.498 249.124 283.407L229.033 383.648H221.206C212.414 383.648 206.395 389.769 206.408 396.268L206.527 461.362H295.297"
              fill="#263238"
            />
            <path
              d="M210.184 406.667C210.181 406.906 210.125 407.142 210.021 407.36C209.916 407.577 209.765 407.771 209.576 407.929C209.254 408.215 208.829 408.373 208.388 408.371H48.84V404.938H208.428C208.732 404.939 209.03 405.013 209.296 405.155C209.561 405.296 209.785 405.499 209.946 405.746C210.113 406.026 210.195 406.345 210.184 406.667Z"
              fill="white"
            />
            <path
              d="M76.9824 404.951V408.383H48.7872L48.8004 404.951H76.9824Z"
              fill="#263238"
            />
            <path
              d="M210.184 406.667C210.181 406.906 210.125 407.142 210.021 407.36C209.916 407.577 209.765 407.771 209.576 407.929C209.254 408.215 208.829 408.373 208.388 408.371H169.686V404.938H208.388C208.692 404.939 208.991 405.013 209.256 405.155C209.522 405.296 209.746 405.499 209.906 405.746C210.087 406.022 210.183 406.341 210.184 406.667V406.667Z"
              fill="#263238"
            />
            <path
              d="M581.764 454.32V455.002C581.764 456.675 581.068 458.28 579.831 459.463C578.593 460.647 576.914 461.312 575.164 461.312H50.8596C49.1092 461.312 47.4304 460.647 46.1927 459.463C44.9549 458.28 44.2596 456.675 44.2596 455.002V454.32C44.2596 452.646 44.9549 451.042 46.1927 449.858C47.4304 448.675 49.1092 448.01 50.8596 448.01H575.164C576.914 448.01 578.593 448.675 579.831 449.858C581.068 451.042 581.764 452.646 581.764 454.32V454.32Z"
              fill="#263238"
            />
            <path
              d="M167.125 453.197H88.9812V456.844H167.125V453.197Z"
              fill="black"
            />
            <path
              d="M68.1912 455.014C68.1912 455.425 68.0638 455.827 67.825 456.17C67.5863 456.512 67.2469 456.779 66.8497 456.937C66.4525 457.095 66.0153 457.137 65.5931 457.057C65.171 456.978 64.7829 456.781 64.4778 456.491C64.1727 456.201 63.9642 455.831 63.8787 455.428C63.7932 455.025 63.8344 454.607 63.9972 454.226C64.1601 453.845 64.4372 453.519 64.7936 453.289C65.15 453.059 65.5698 452.934 66 452.932C66.2871 452.93 66.5718 452.983 66.8375 453.087C67.1033 453.191 67.345 453.344 67.5486 453.537C67.7523 453.731 67.9139 453.961 68.0242 454.214C68.1344 454.468 68.1912 454.74 68.1912 455.014V455.014Z"
              fill="white"
            />
            <path
              d="M185.79 455.014C185.79 455.426 185.662 455.829 185.423 456.171C185.184 456.513 184.843 456.78 184.445 456.938C184.047 457.095 183.61 457.137 183.187 457.056C182.765 456.976 182.376 456.778 182.072 456.486C181.767 456.195 181.56 455.824 181.476 455.42C181.392 455.016 181.435 454.598 181.6 454.217C181.765 453.837 182.044 453.512 182.402 453.283C182.76 453.054 183.181 452.932 183.612 452.932C183.898 452.932 184.181 452.986 184.445 453.09C184.71 453.195 184.95 453.348 185.152 453.542C185.354 453.735 185.515 453.965 185.624 454.217C185.734 454.47 185.79 454.741 185.79 455.014V455.014Z"
              fill="white"
            />
            <path
              d="M248.939 475.686C248.939 455.607 258.456 439.327 270.204 439.327H247.645C235.91 439.327 226.393 455.607 226.393 475.686C226.393 495.764 235.91 512.031 247.645 512.031H270.204C258.456 512.069 248.939 495.802 248.939 475.686Z"
              fill="black"
            />
            <path
              opacity="0.7"
              d="M248.939 475.686C248.939 455.607 258.456 439.327 270.204 439.327H247.645C235.91 439.327 226.393 455.607 226.393 475.686C226.393 495.764 235.91 512.031 247.645 512.031H270.204C258.456 512.069 248.939 495.802 248.939 475.686Z"
              fill="#263238"
            />
            <path
              d="M270.204 512.082C281.948 512.082 291.469 495.804 291.469 475.724C291.469 455.643 281.948 439.365 270.204 439.365C258.46 439.365 248.939 455.643 248.939 475.724C248.939 495.804 258.46 512.082 270.204 512.082Z"
              fill="#263238"
            />
            <path
              d="M271.907 504.068C280.232 504.068 286.981 491.378 286.981 475.723C286.981 460.069 280.232 447.379 271.907 447.379C263.581 447.379 256.832 460.069 256.832 475.723C256.832 491.378 263.581 504.068 271.907 504.068Z"
              fill="white"
            />
            <path
              d="M270.534 500.257C278.502 500.257 284.962 489.273 284.962 475.723C284.962 462.174 278.502 451.19 270.534 451.19C262.566 451.19 256.106 462.174 256.106 475.723C256.106 489.273 262.566 500.257 270.534 500.257Z"
              fill="#263238"
            />
            <path
              d="M267.366 493.631C273.184 493.631 277.9 485.614 277.9 475.723C277.9 465.833 273.184 457.816 267.366 457.816C261.548 457.816 256.832 465.833 256.832 475.723C256.832 485.614 261.548 493.631 267.366 493.631Z"
              fill="black"
            />
            <path
              opacity="0.5"
              d="M581.764 454.32V455.002C581.764 456.675 581.068 458.28 579.831 459.463C578.593 460.647 576.914 461.312 575.164 461.312H308.392V448.01H575.164C576.914 448.01 578.593 448.675 579.831 449.858C581.068 451.042 581.764 452.646 581.764 454.32V454.32Z"
              fill="black"
            />
            <path
              d="M498.854 475.686C498.854 455.607 508.372 439.327 520.106 439.327H497.561C485.813 439.327 476.296 455.607 476.296 475.686C476.296 495.764 485.813 512.031 497.561 512.031H520.08C508.372 512.069 498.854 495.802 498.854 475.686Z"
              fill="black"
            />
            <path
              opacity="0.7"
              d="M498.854 475.686C498.854 455.607 508.372 439.327 520.106 439.327H497.561C485.813 439.327 476.296 455.607 476.296 475.686C476.296 495.764 485.813 512.031 497.561 512.031H520.08C508.372 512.069 498.854 495.802 498.854 475.686Z"
              fill="#263238"
            />
            <path
              d="M520.106 512.082C531.851 512.082 541.372 495.804 541.372 475.724C541.372 455.643 531.851 439.365 520.106 439.365C508.362 439.365 498.841 455.643 498.841 475.724C498.841 495.804 508.362 512.082 520.106 512.082Z"
              fill="#263238"
            />
            <path
              d="M521.822 504.068C530.148 504.068 536.897 491.378 536.897 475.723C536.897 460.069 530.148 447.379 521.822 447.379C513.497 447.379 506.748 460.069 506.748 475.723C506.748 491.378 513.497 504.068 521.822 504.068Z"
              fill="white"
            />
            <path
              d="M520.436 500.257C528.405 500.257 534.864 489.273 534.864 475.723C534.864 462.174 528.405 451.19 520.436 451.19C512.468 451.19 506.009 462.174 506.009 475.723C506.009 489.273 512.468 500.257 520.436 500.257Z"
              fill="#263238"
            />
            <path
              d="M517.268 493.631C523.086 493.631 527.802 485.614 527.802 475.723C527.802 465.833 523.086 457.816 517.268 457.816C511.451 457.816 506.735 465.833 506.735 475.723C506.735 485.614 511.451 493.631 517.268 493.631Z"
              fill="black"
            />
            <path
              d="M434.095 297.832C433.831 302.691 433.369 307.385 432.617 312.168C431.967 317.109 430.835 321.98 429.238 326.719C428.734 328.099 428.102 329.434 427.35 330.707C426.827 331.566 426.187 332.355 425.449 333.054L425.08 333.383L424.868 333.534L424.763 333.622L424.314 333.913L423.43 334.506C421.188 335.881 418.83 337.076 416.381 338.077C411.733 340.03 406.902 341.56 401.953 342.646L400.237 338.153C404.435 335.932 408.738 333.66 412.658 331.3C414.575 330.176 416.417 328.941 418.176 327.603L418.757 327.136L419.047 326.896C419.047 326.896 419.166 326.707 419.311 326.404C419.697 325.588 420.015 324.744 420.262 323.88C420.858 321.804 421.33 319.697 421.674 317.57C422.083 315.374 422.413 313.14 422.69 310.868C423.232 306.363 423.694 301.744 424.01 297.251L434.095 297.832Z"
              fill="#CE7A63"
            />
            <path
              d="M403.366 338.216L395.261 335.818L396.779 345.195C396.779 345.195 402.059 344.564 404.699 341.737L403.366 338.216Z"
              fill="#CE7A63"
            />
            <path
              d="M385.44 341.851L385.889 343.113C386.142 343.81 386.625 344.409 387.266 344.821C387.906 345.233 388.669 345.435 389.44 345.397L393.571 345.22L392.04 335.818L387.499 337.522C386.638 337.85 385.942 338.483 385.559 339.29C385.175 340.097 385.132 341.014 385.44 341.851V341.851Z"
              fill="#CE7A63"
            />
            <path
              d="M443.678 288.733C443.678 291.661 442.2 297.441 440.933 301.782C439.996 304.899 439.217 307.272 439.217 307.272L437.356 306.83L422.017 303.12C421.78 295.548 422.083 287.307 429.937 282.36C434.848 279.255 443.639 283.521 443.678 288.733Z"
              fill="#F9564F"
            />
            <path
              opacity="0.3"
              d="M443.665 289.238C442.662 288.228 440.392 288.052 435.442 289.553C428.353 291.699 426.373 299.119 426.281 304.155L437.356 306.83L438.306 307.07L439.217 307.272C439.217 307.272 439.6 306.085 440.154 304.281C440.378 303.549 440.656 302.691 440.92 301.757C442.241 297.675 443.16 293.483 443.665 289.238V289.238Z"
              fill="black"
            />
            <path
              d="M412.196 524.323L402.838 521.193L408.725 501.809L418.07 504.951L412.196 524.323Z"
              fill="#CE7A63"
            />
            <path
              d="M537.24 501.355L529.624 506.781L514.034 491.675L521.651 486.249L537.24 501.355Z"
              fill="#CE7A63"
            />
            <path
              d="M526.508 504.573L534.732 498.074C534.871 497.958 535.049 497.895 535.234 497.895C535.418 497.895 535.596 497.958 535.735 498.074L542.045 503.551C542.186 503.685 542.299 503.846 542.376 504.022C542.452 504.199 542.492 504.388 542.492 504.579C542.492 504.77 542.452 504.96 542.376 505.136C542.299 505.313 542.186 505.473 542.045 505.608L541.913 505.721C539.009 507.942 537.478 508.876 533.861 511.728C531.643 513.483 526.984 517.685 523.908 520.108C520.832 522.531 518.166 519.767 519.222 518.493C523.934 512.788 525.03 509.028 525.584 505.948C525.717 505.402 526.044 504.916 526.508 504.573V504.573Z"
              fill="#263238"
            />
            <path
              d="M402.204 518.392L412.606 522.544C412.791 522.621 412.945 522.754 413.045 522.922C413.145 523.091 413.185 523.286 413.16 523.478L411.985 532.248C411.939 532.6 411.749 532.919 411.457 533.137C411.165 533.354 410.795 533.452 410.428 533.41C410.291 533.396 410.157 533.362 410.032 533.309C406.349 531.882 404.62 531.176 400.052 529.346L386.034 523.73C382.232 522.203 383.051 518.215 384.714 518.505C392.41 519.843 397.373 519.401 400.409 518.303C400.699 518.204 401.007 518.161 401.316 518.176C401.624 518.191 401.926 518.264 402.204 518.392V518.392Z"
              fill="#263238"
            />
            <path
              opacity="0.2"
              d="M408.725 501.822L405.702 511.804L414.81 515.742L418.084 504.951L408.725 501.822Z"
              fill="black"
            />
            <path
              opacity="0.2"
              d="M521.664 486.249L514.034 491.675L522.073 499.462L529.69 494.035L521.664 486.249Z"
              fill="black"
            />
            <path
              d="M472.454 336.108L433.91 336.639C428.63 308.105 427.31 294.488 427.31 287.938C427.304 286.304 427.893 284.72 428.978 283.457C430.062 282.195 431.573 281.334 433.25 281.022C435.6 280.58 438.53 280.076 441.474 279.684C442.477 279.558 443.494 279.432 444.497 279.331C450.318 278.854 456.167 278.774 462 279.091C462.871 279.091 463.729 279.167 464.64 279.218C468.6 279.457 472.217 279.937 474.791 280.315C475.717 280.458 476.545 280.946 477.095 281.673C477.644 282.399 477.87 283.305 477.721 284.19C477.728 284.253 477.728 284.316 477.721 284.379C476.586 289.427 475.662 293.907 474.923 297.895C473.748 304.205 473.009 309.354 472.573 313.847C471.913 321.252 471.874 328.697 472.454 336.108V336.108Z"
              fill="#F9564F"
            />
            <path
              opacity="0.1"
              d="M472.56 313.885C470.62 308.319 470.725 296.772 472.811 293.036L474.936 297.92C473.735 304.268 472.996 309.392 472.56 313.885Z"
              fill="black"
            />
            <path
              d="M433.91 336.638C433.91 336.638 427.31 390.286 421.357 423.716C416.645 449.89 404.738 504.371 404.738 504.371L420.196 509.608C420.196 509.608 437.897 452.818 440.999 428.563C453.473 393.593 462.449 336.373 462.449 336.373L433.91 336.638Z"
              fill="#1A535C"
            />
            <path
              d="M402.23 508.031L420.116 514.05L422.506 508.561L403.102 501.468L402.23 508.031Z"
              fill="#263238"
            />
            <path
              opacity="0.1"
              d="M453.446 352.578L447.665 363.166C445.553 371.142 446.054 390.551 448.734 402.818C453.539 384.329 457.38 364.869 459.769 351.808L453.446 352.578Z"
              fill="black"
            />
            <path
              d="M442.279 336.639C442.279 336.639 449.183 396.684 462.079 430.027C468.547 446.748 516.529 496.319 516.529 496.319L527.353 488.041C527.353 488.041 496.927 438.028 483.622 424.941C478.196 395.915 485.021 352.401 472.415 336.121L442.279 336.639Z"
              fill="#1A535C"
            />
            <path
              d="M517.44 499.866L530.138 489.921L526.706 484.532L512.807 496.105L517.44 499.866Z"
              fill="#263238"
            />
            <path
              d="M473.062 333.95L474.844 337.219C474.976 337.471 474.672 337.749 474.223 337.749L433.778 338.304C433.422 338.304 433.145 338.14 433.105 337.938L432.722 334.645C432.722 334.417 433 334.215 433.369 334.215L472.415 333.673C472.538 333.666 472.661 333.687 472.774 333.736C472.886 333.784 472.985 333.858 473.062 333.95V333.95Z"
              fill="#263238"
            />
            <path
              d="M467.821 338.216H468.89C469.088 338.216 469.247 338.102 469.234 337.989L468.666 333.698C468.666 333.572 468.481 333.484 468.27 333.484H467.28C467.069 333.484 466.91 333.597 466.937 333.711L467.491 337.989C467.425 338.09 467.623 338.216 467.821 338.216Z"
              fill="#1E4951"
            />
            <path
              d="M436.682 338.62H437.738C437.95 338.62 438.095 338.506 438.082 338.38L437.54 334.102C437.54 333.976 437.329 333.875 437.118 333.875H436.062C435.851 333.875 435.692 333.988 435.706 334.114L436.26 338.393C436.286 338.519 436.471 338.62 436.682 338.62Z"
              fill="#407BFF"
            />
            <path
              d="M452.258 338.38H453.314C453.526 338.38 453.684 338.266 453.671 338.14L453.116 333.862C453.116 333.723 452.918 333.622 452.707 333.635H451.651C451.44 333.635 451.295 333.748 451.295 333.875L451.849 338.153C451.836 338.304 452.047 338.38 452.258 338.38Z"
              fill="#1E4951"
            />
            <path
              d="M382.325 298.867L439.534 291.358L447.454 345.056L391.274 352.426L382.325 298.867Z"
              fill="#407BFF"
            />
            <path
              opacity="0.8"
              d="M382.325 298.867L439.534 291.358L447.454 345.056L391.274 352.426L382.325 298.867Z"
              fill="#F3C677"
            />
            <path
              opacity="0.2"
              d="M440.319 290.765L425.043 292.831L433.237 348.228L448.513 346.163L440.319 290.765Z"
              fill="#F3C677"
            />
            <path
              d="M455.756 338.292L447.836 335.326L448.615 344.791C448.615 344.791 453.895 344.539 456.733 341.901L455.756 338.292Z"
              fill="#CE7A63"
            />
            <path
              d="M480.665 291.169C482.79 296.848 484.625 302.527 486.182 308.332C486.974 311.247 487.714 314.175 488.308 317.166C488.598 318.68 488.849 320.22 489.034 321.823C489.246 323.497 489.321 325.185 489.258 326.871C489.221 327.968 489.044 329.057 488.73 330.114C488.296 331.413 487.571 332.606 486.605 333.61C485.193 335.055 483.515 336.24 481.655 337.105C478.609 338.518 475.402 339.59 472.098 340.298C465.922 341.668 459.624 342.475 453.288 342.709L452.668 337.951C455.558 337.295 458.515 336.563 461.393 335.793C464.27 335.023 467.135 334.165 469.88 333.206C472.503 332.344 475.032 331.241 477.431 329.912C478.302 329.425 479.079 328.797 479.728 328.057C479.899 327.805 479.899 327.741 479.873 327.741C479.899 327.367 479.899 326.992 479.873 326.618C479.823 325.395 479.686 324.177 479.464 322.971C479.252 321.709 478.962 320.296 478.645 318.907C477.985 316.207 477.246 313.443 476.414 310.679C474.764 305.202 472.903 299.637 471.042 294.273L480.665 291.169Z"
              fill="#CE7A63"
            />
            <path
              d="M440.537 339.995L441.157 342.191C441.343 342.897 441.765 343.524 442.358 343.98C442.951 344.435 443.684 344.694 444.444 344.715L448.694 344.829L447.916 335.377L443.586 335.843C443.126 335.888 442.68 336.018 442.274 336.227C441.867 336.436 441.507 336.72 441.215 337.063C440.923 337.405 440.705 337.799 440.573 338.222C440.441 338.645 440.397 339.089 440.444 339.529C440.464 339.686 440.495 339.842 440.537 339.995V339.995Z"
              fill="#CE7A63"
            />
            <path
              d="M476.164 280.593C480.599 282.322 484.229 296.254 484.229 296.254L471.979 305.404C471.979 305.404 463.294 292.405 465.062 286.764C466.567 281.994 470.514 278.41 476.164 280.593Z"
              fill="#F9564F"
            />
            <path
              d="M523.512 508.51H523.354C523.132 508.496 522.918 508.428 522.731 508.313C522.544 508.199 522.39 508.041 522.284 507.854C522.206 507.747 522.158 507.621 522.147 507.49C522.135 507.359 522.16 507.228 522.218 507.109C522.76 506.1 526.178 505.696 526.548 505.658C526.592 505.65 526.637 505.656 526.677 505.674C526.718 505.692 526.751 505.722 526.772 505.759C526.797 505.795 526.811 505.836 526.811 505.879C526.811 505.922 526.797 505.963 526.772 505.999C526.06 506.92 524.674 508.435 523.512 508.51ZM526.086 506.15C524.766 506.34 522.905 506.756 522.641 507.311C522.609 507.358 522.592 507.413 522.592 507.469C522.592 507.525 522.609 507.58 522.641 507.627C522.703 507.756 522.801 507.867 522.924 507.947C523.048 508.027 523.192 508.074 523.34 508.081C524 508.081 525.056 507.4 526.112 506.15H526.086Z"
              fill="#263238"
            />
            <path
              d="M526.39 506.062C525.241 506.062 522.944 505.671 522.43 504.8C522.348 504.649 522.321 504.476 522.355 504.309C522.388 504.142 522.48 503.99 522.614 503.879C522.731 503.756 522.874 503.66 523.034 503.597C523.193 503.534 523.366 503.505 523.538 503.513C524.924 503.513 526.68 505.545 526.733 505.658C526.753 505.688 526.763 505.723 526.763 505.759C526.763 505.795 526.753 505.83 526.733 505.86C526.722 505.897 526.7 505.93 526.67 505.955C526.639 505.98 526.601 505.995 526.561 505.999L526.39 506.062ZM523.459 503.967C523.273 503.984 523.1 504.065 522.971 504.194C522.773 504.396 522.812 504.522 522.865 504.623C523.169 505.179 524.977 505.633 526.139 505.633C525.477 504.839 524.58 504.254 523.565 503.954L523.459 503.967Z"
              fill="#263238"
            />
            <path
              d="M396.884 518.19C396.151 517.961 395.51 517.52 395.05 516.928C394.945 516.753 394.881 516.559 394.863 516.358C394.845 516.158 394.873 515.956 394.944 515.767C394.98 515.658 395.045 515.56 395.133 515.482C395.221 515.405 395.329 515.351 395.446 515.325C396.66 515.111 399.524 518.051 400.079 518.644C400.105 518.681 400.119 518.725 400.119 518.77C400.119 518.815 400.105 518.859 400.079 518.897C400.057 518.936 400.021 518.968 399.978 518.986C399.935 519.004 399.887 519.008 399.841 518.997C398.83 518.825 397.839 518.554 396.884 518.19V518.19ZM395.974 515.817C395.838 515.755 395.688 515.729 395.538 515.742C395.538 515.742 395.419 515.742 395.366 515.893C395.313 516.024 395.293 516.166 395.306 516.306C395.32 516.446 395.368 516.581 395.446 516.701C395.855 517.382 397.267 518.026 399.274 518.442C398.332 517.41 397.228 516.524 396 515.817H395.974Z"
              fill="#263238"
            />
            <path
              d="M399.828 518.972H399.749C398.785 518.051 397.214 515.287 397.756 514.404C397.874 514.214 398.125 514.013 398.693 514.164C400.818 514.757 400.171 518.695 400.132 518.859C400.132 518.9 400.115 518.94 400.086 518.97C400.057 519.001 400.016 519.02 399.973 519.023C399.947 519.028 399.919 519.026 399.893 519.017C399.867 519.009 399.845 518.993 399.828 518.972V518.972ZM398.772 514.568H398.64C398.429 514.505 398.27 514.568 398.218 514.568C397.901 515.085 398.917 517.168 399.841 518.278C399.828 517.306 399.96 515.073 398.772 514.568V514.568Z"
              fill="#263238"
            />
            <path
              d="M439.666 241.332C439.666 241.332 434.386 249.775 438.346 253.473C442.306 257.17 443.467 244.058 443.467 244.058L439.666 241.332Z"
              fill="#263238"
            />
            <path
              d="M464.191 261.146C464.191 261.146 470.791 251.277 468.046 241.471C465.3 231.665 452.47 238.001 447.058 235.313C445.075 234.16 442.963 233.225 440.761 232.523C440.407 232.423 440.034 232.402 439.67 232.461C439.307 232.52 438.962 232.658 438.662 232.864C437.342 233.975 439.639 236.057 440.352 236.84C439.914 236.355 439.407 235.93 438.847 235.578C438.148 235.136 437.21 235.098 437.527 236.221C438.07 237.428 439.043 238.412 440.273 238.998C439.758 238.72 436.709 237.243 436.498 238.165C436.471 238.388 436.532 238.613 436.669 238.796C438.649 242.329 442.636 246.771 447.229 246.86C452.76 246.936 458.04 261.814 464.191 261.146Z"
              fill="#263238"
            />
            <path
              d="M466.528 261.587C466.184 264.919 461.01 264.957 461.01 264.957C460.163 266.864 458.755 268.495 456.958 269.652C456.799 271.664 456.869 273.686 457.169 275.684C458.04 278.826 459.149 279.912 460.535 280.618L459.426 281.666C457.304 282.836 454.906 283.475 452.456 283.521L451.004 282.713L449.104 283.004C443.824 281.35 445.144 277.956 445.144 277.956C446.107 275.65 446.158 273.089 445.289 270.749C440.22 269.235 438.148 265.02 437.435 257.928C436.722 250.835 440.893 244.046 440.893 244.046C446.622 249.333 457.974 245.939 457.974 245.939C457.486 255.883 462.343 259.556 462.343 259.556C463.94 258.193 466.858 258.268 466.528 261.587Z"
              fill="#CE7A63"
            />
            <path
              d="M448.1 262.496C449.463 262.132 450.64 261.306 451.414 260.174C451.476 260.085 451.5 259.976 451.48 259.87C451.461 259.764 451.399 259.669 451.308 259.606C451.263 259.574 451.212 259.551 451.158 259.538C451.103 259.526 451.047 259.523 450.992 259.532C450.936 259.54 450.883 259.558 450.836 259.586C450.788 259.614 450.747 259.651 450.714 259.694C450.269 260.46 449.578 261.069 448.745 261.432C447.911 261.796 446.977 261.894 446.081 261.714C445.974 261.682 445.859 261.692 445.76 261.742C445.661 261.791 445.586 261.877 445.553 261.979C445.519 262.082 445.53 262.195 445.581 262.291C445.633 262.388 445.722 262.461 445.83 262.496C446.574 262.682 447.356 262.682 448.1 262.496V262.496Z"
              fill="#263238"
            />
            <path
              d="M449.605 253.813C449.605 254.457 449.341 255.012 448.892 255.075C448.444 255.139 448.034 254.609 447.982 253.965C447.929 253.321 448.259 252.703 448.708 252.703C449.156 252.703 449.552 253.157 449.605 253.813Z"
              fill="#263238"
            />
            <path
              d="M441.527 253.485C441.527 254.129 441.263 254.684 440.814 254.747C440.365 254.81 439.969 254.28 439.916 253.637C439.864 252.993 440.18 252.438 440.629 252.375C441.078 252.312 441.487 252.829 441.527 253.485Z"
              fill="#263238"
            />
            <path
              d="M443.665 259.732L443.573 255.063L441.144 259C441.48 259.295 441.881 259.515 442.317 259.641C442.754 259.768 443.214 259.799 443.665 259.732Z"
              fill="#BA4D3C"
            />
            <path
              d="M453.288 249.876C453.345 249.861 453.399 249.835 453.446 249.8C453.511 249.764 453.567 249.716 453.611 249.658C453.656 249.601 453.688 249.535 453.705 249.466C453.722 249.396 453.725 249.324 453.712 249.254C453.699 249.183 453.672 249.116 453.631 249.056C453.192 248.351 452.554 247.779 451.791 247.404C451.028 247.029 450.17 246.867 449.315 246.936C449.24 246.943 449.169 246.965 449.103 247C449.038 247.035 448.981 247.082 448.936 247.139C448.89 247.195 448.857 247.26 448.838 247.329C448.819 247.399 448.815 247.471 448.826 247.541C448.846 247.683 448.924 247.812 449.043 247.9C449.161 247.987 449.311 248.026 449.46 248.008V248.008C450.098 247.97 450.735 248.101 451.301 248.386C451.867 248.671 452.339 249.099 452.668 249.624C452.729 249.724 452.823 249.802 452.934 249.847C453.046 249.893 453.17 249.903 453.288 249.876Z"
              fill="#263238"
            />
            <path
              d="M438.966 249.359C439.114 249.322 439.242 249.231 439.322 249.106C439.559 248.764 439.895 248.495 440.288 248.331C440.682 248.168 441.117 248.117 441.54 248.185C441.613 248.199 441.688 248.2 441.761 248.186C441.834 248.172 441.904 248.144 441.965 248.104C442.027 248.064 442.079 248.013 442.12 247.953C442.16 247.893 442.187 247.826 442.2 247.756C442.227 247.615 442.195 247.47 442.111 247.352C442.027 247.234 441.898 247.152 441.751 247.125C441.098 247.009 440.424 247.084 439.816 247.341C439.208 247.598 438.696 248.024 438.346 248.564C438.272 248.688 438.251 248.835 438.288 248.974C438.325 249.113 438.417 249.232 438.544 249.308C438.673 249.374 438.823 249.392 438.966 249.359Z"
              fill="#263238"
            />
            <path
              d="M462.686 281.06L459.848 283.71L454.793 288.455L452.892 285.565L451.004 282.713L457.604 275.192L462.409 280.745L462.686 281.06Z"
              fill="white"
            />
            <path
              d="M451.004 282.713L449.539 285.048L447.388 288.455L442.451 279.937L445.606 276.391L451.004 282.713Z"
              fill="white"
            />
          </svg>